<svg xmlns="http://www.w3.org/2000/svg" width="192" height="192" viewBox="-64 0 320 192"><path d="M87 124L82 147" fill="none" stroke="#272b30" stroke-width="15" stroke-linejoin="round" stroke-linecap="round"/><path d="M87 124L82 147" fill="none" stroke="#5c373b" stroke-width="12" stroke-linejoin="round" stroke-linecap="round"/><path d="M82 147L80 169" fill="none" stroke="#272b30" stroke-width="12" stroke-linejoin="round" stroke-linecap="round"/><path d="M82 147L80 169" fill="none" stroke="#574b3e" stroke-width="9" stroke-linejoin="round" stroke-linecap="round"/><circle cx="82" cy="147" r="5" fill="#5c373b" stroke="#272b30" stroke-width="2"/><g transform="translate(80 176) rotate(0 0 0)"><path d="M-7-10h10l3 7 9 2v3H-7z" fill="#574b3e" stroke="#272b30" stroke-width="2" stroke-linejoin="round" stroke-linecap="round"/></g><path d="M104 124L109 147" fill="none" stroke="#272b30" stroke-width="15" stroke-linejoin="round" stroke-linecap="round"/><path d="M104 124L109 147" fill="none" stroke="#82494a" stroke-width="12" stroke-linejoin="round" stroke-linecap="round"/><path d="M109 147L112 169" fill="none" stroke="#272b30" stroke-width="12" stroke-linejoin="round" stroke-linecap="round"/><path d="M109 147L112 169" fill="none" stroke="#574b3e" stroke-width="9" stroke-linejoin="round" stroke-linecap="round"/><circle cx="109" cy="147" r="5" fill="#82494a" stroke="#272b30" stroke-width="2"/><g transform="translate(112 176) rotate(0 0 0)"><path d="M-7-10h10l3 7 9 2v3H-7z" fill="#574b3e" stroke="#272b30" stroke-width="2" stroke-linejoin="round" stroke-linecap="round"/></g><g transform="translate(0 0)"><path d="M76 82q19-12 39 0l8 54q-22 11-54 0z" fill="#82494a" stroke="#272b30" stroke-width="2" stroke-linejoin="round" stroke-linecap="round"/><path d="M70 131q26 10 52 0l2 16q-27 10-55-1z" fill="#5c373b" stroke="#272b30" stroke-width="2" stroke-linejoin="round" stroke-linecap="round"/><path d="M81 82l14 10 14-9 6 8-19 14-21-15z" fill="#5c373b" stroke="#272b30" stroke-width="2" stroke-linejoin="round" stroke-linecap="round"/><path d="M97 102v28" fill="none" stroke="#c98975" stroke-width="2" stroke-linejoin="round" stroke-linecap="round"/><circle cx="101" cy="106" r="2" fill="#d6ad62" stroke="#272b30" stroke-width="2"/><circle cx="101" cy="117" r="2" fill="#d6ad62" stroke="#272b30" stroke-width="2"/><circle cx="101" cy="128" r="2" fill="#d6ad62" stroke="#272b30" stroke-width="2"/><path d="M73 127h48" fill="none" stroke="#574b3e" stroke-width="5" stroke-linejoin="round" stroke-linecap="round"/><circle cx="98" cy="127" r="4" fill="#d6ad62" stroke="#272b30" stroke-width="2"/><path d="M79 82l35 38" fill="none" stroke="#574b3e" stroke-width="6" stroke-linejoin="round" stroke-linecap="round"/><path d="M70 109h15v27H70z" fill="#cfbb8e" stroke="#272b30" stroke-width="2" stroke-linejoin="round" stroke-linecap="round"/></g><g transform="translate(0 0)"><path d="M89 72h18v16H89z" fill="#b77c63" stroke="#272b30" stroke-width="2" stroke-linejoin="round" stroke-linecap="round"/><path d="M82 44q11-8 24-1l8 11 8 5-8 5-2 12q-18 9-31-7z" fill="#deb18d" stroke="#272b30" stroke-width="2" stroke-linejoin="round" stroke-linecap="round"/><ellipse cx="82" cy="58" rx="4" ry="6" fill="#deb18d" stroke="#272b30" stroke-width="2"/><path d="M104 50l10 1" fill="none" stroke="#574b3e" stroke-width="2" stroke-linejoin="round" stroke-linecap="round"/><ellipse cx="110" cy="56" rx="2" ry="2" fill="#272b30" stroke="none" stroke-width="2"/><path d="M108 68h7" fill="none" stroke="#b77c63" stroke-width="2" stroke-linejoin="round" stroke-linecap="round"/><path d="M71 41q5-22 27-22 23 0 28 23z" fill="#82494a" stroke="#272b30" stroke-width="2" stroke-linejoin="round" stroke-linecap="round"/><path d="M67 43h67l-8 7H71z" fill="#5c373b" stroke="#272b30" stroke-width="2" stroke-linejoin="round" stroke-linecap="round"/><circle cx="91" cy="29" r="3" fill="#d6ad62" stroke="#272b30" stroke-width="2"/></g><path d="M78 88L91 106 105 105" fill="none" stroke="#272b30" stroke-width="11" stroke-linejoin="round" stroke-linecap="round"/><path d="M78 88L91 106 105 105" fill="none" stroke="#5c373b" stroke-width="8" stroke-linejoin="round" stroke-linecap="round"/><path d="M111 88L126 105 139 104" fill="none" stroke="#272b30" stroke-width="11" stroke-linejoin="round" stroke-linecap="round"/><path d="M111 88L126 105 139 104" fill="none" stroke="#82494a" stroke-width="8" stroke-linejoin="round" stroke-linecap="round"/><g transform="translate(0 0)"><path d="M83 101h92l10 6-10 5H83z" fill="#77543d" stroke="#272b30" stroke-width="2" stroke-linejoin="round" stroke-linecap="round"/><path d="M107 98h76" fill="none" stroke="#46565c" stroke-width="6" stroke-linejoin="round" stroke-linecap="round"/><path d="M110 97h74" fill="none" stroke="#c4d0cd" stroke-width="2" stroke-linejoin="round" stroke-linecap="round"/><path d="M94 107l-6 19 19-5 8-14z" fill="#574b3e" stroke="#272b30" stroke-width="2" stroke-linejoin="round" stroke-linecap="round"/><circle cx="119" cy="103" r="3" fill="#d6ad62" stroke="#272b30" stroke-width="2"/><path d="M182 100h7v10h-7z" fill="#46565c" stroke="#272b30" stroke-width="2" stroke-linejoin="round" stroke-linecap="round"/></g><circle cx="105" cy="105" r="5" fill="#deb18d" stroke="#272b30" stroke-width="2"/><circle cx="139" cy="104" r="5" fill="#deb18d" stroke="#272b30" stroke-width="2"/></svg>