<svg xmlns="http://www.w3.org/2000/svg" width="192" height="192" viewBox="-64 0 320 192"><g transform="scale(1)"><path d="M84 123L84 146 82 169" fill="none" stroke="#285255" stroke-width="13" stroke-linejoin="round" stroke-linecap="round"/><circle cx="84" cy="146" r="5" fill="#285255" stroke="#272b30" stroke-width="2"/><path d="M75 169h12l8 5v3h-24z" fill="#574b3e" stroke="#272b30" stroke-width="2" stroke-linejoin="round" stroke-linecap="round"/><path d="M108 123L108 146 111 169" fill="none" stroke="#3d7777" stroke-width="13" stroke-linejoin="round" stroke-linecap="round"/><circle cx="108" cy="146" r="5" fill="#3d7777" stroke="#272b30" stroke-width="2"/><path d="M104 169h12l8 5v3h-24z" fill="#574b3e" stroke="#272b30" stroke-width="2" stroke-linejoin="round" stroke-linecap="round"/></g><g transform="translate(0 0)"><path d="M76 80q19-11 39 1l8 49-23 15-30-16z" fill="#3d7777" stroke="#272b30" stroke-width="2" stroke-linejoin="round" stroke-linecap="round"/><path d="M71 127l29 11 22-11 3 19-30 6-24-11z" fill="#285255" stroke="#272b30" stroke-width="2" stroke-linejoin="round" stroke-linecap="round"/><path d="M81 82l14 10 14-9 6 8-19 14-21-15z" fill="#285255" stroke="#272b30" stroke-width="2" stroke-linejoin="round" stroke-linecap="round"/><path d="M77 123h43" fill="none" stroke="#574b3e" stroke-width="5" stroke-linejoin="round" stroke-linecap="round"/><circle cx="98" cy="123" r="4" fill="#d6ad62" stroke="#272b30" stroke-width="2"/><path d="M65 105h25v33H65z" fill="#574b3e" stroke="#272b30" stroke-width="2" stroke-linejoin="round" stroke-linecap="round"/><path d="M68 113h18M68 120h18" fill="none" stroke="#d6ad62" stroke-width="2" stroke-linejoin="round" stroke-linecap="round"/></g><g transform="translate(0 0)"><path d="M89 72h18v16H89z" fill="#b77c63" stroke="#272b30" stroke-width="2" stroke-linejoin="round" stroke-linecap="round"/><path d="M82 44q11-8 24-1l8 11 8 5-8 5-2 12q-18 9-31-7z" fill="#deb18d" stroke="#272b30" stroke-width="2" stroke-linejoin="round" stroke-linecap="round"/><ellipse cx="82" cy="58" rx="4" ry="6" fill="#deb18d" stroke="#272b30" stroke-width="2"/><path d="M104 50l10 1" fill="none" stroke="#574b3e" stroke-width="2" stroke-linejoin="round" stroke-linecap="round"/><ellipse cx="110" cy="56" rx="2" ry="2" fill="#272b30" stroke="none" stroke-width="2"/><path d="M108 68h7" fill="none" stroke="#b77c63" stroke-width="2" stroke-linejoin="round" stroke-linecap="round"/><path d="M76 42q-4-23 21-27 25 2 24 28l-17-7-19 11z" fill="#46565c" stroke="#272b30" stroke-width="2" stroke-linejoin="round" stroke-linecap="round"/><path d="M75 42h47l-4 6H77z" fill="#d6ad62" stroke="#272b30" stroke-width="2" stroke-linejoin="round" stroke-linecap="round"/></g><path d="M78 88L70 104 65 121" fill="none" stroke="#285255" stroke-width="9" stroke-linejoin="round" stroke-linecap="round"/><path d="M111 88L125 105 131 91" fill="none" stroke="#3d7777" stroke-width="9" stroke-linejoin="round" stroke-linecap="round"/><circle cx="65" cy="121" r="5" fill="#deb18d" stroke="#272b30" stroke-width="2"/><circle cx="131" cy="91" r="5" fill="#deb18d" stroke="#272b30" stroke-width="2"/><path d="M123 78h16v26h-16z" fill="#574b3e" stroke="#272b30" stroke-width="2" stroke-linejoin="round" stroke-linecap="round"/><path d="M131 77v-9" fill="none" stroke="#d6ad62" stroke-width="2" stroke-linejoin="round" stroke-linecap="round"/></svg>