<svg xmlns="http://www.w3.org/2000/svg" width="1600" height="600" viewBox="0 0 1600 600"><defs><linearGradient id="sky" x2="0" y2="1"><stop stop-color="#718c98"/><stop offset="1" stop-color="#c2aea0"/></linearGradient></defs><rect width="1600" height="600" fill="url(#sky)"/><circle cx="1230" cy="115" r="49" fill="#ddc8a7"/><path d="M0 315Q280 245 525 292T1060 279 1600 320V600H0" fill="#69777a"/><path d="M0 410q240-55 420-24t420-29 760 26v217H0z" fill="#6c6b62"/><path d="M100 407v-68l32-15 46 17v66z" fill="#535e5b" stroke="#394a4a" stroke-width="5"/><path d="M112 364h43M116 377h12m15-2h12" stroke="#9f9b84" stroke-width="5"/><path d="M370 407v-82l32-15 46 17v66z" fill="#535e5b" stroke="#394a4a" stroke-width="5"/><path d="M382 364h43M386 377h12m15-2h12" stroke="#9f9b84" stroke-width="5"/><path d="M710 407v-68l32-15 46 17v66z" fill="#535e5b" stroke="#394a4a" stroke-width="5"/><path d="M722 364h43M726 377h12m15-2h12" stroke="#9f9b84" stroke-width="5"/><path d="M1130 407v-82l32-15 46 17v66z" fill="#535e5b" stroke="#394a4a" stroke-width="5"/><path d="M1142 364h43M1146 377h12m15-2h12" stroke="#9f9b84" stroke-width="5"/><path d="M1430 407v-68l32-15 46 17v66z" fill="#535e5b" stroke="#394a4a" stroke-width="5"/><path d="M1442 364h43M1446 377h12m15-2h12" stroke="#9f9b84" stroke-width="5"/><path d="M0 481q300-46 560 3t500-2 540 8v110H0z" fill="#786f5f"/><path d="M0 523q195 34 350 0t400 12 420-7 430 2" stroke="#a3997e" stroke-width="7" fill="none"/><path d="M0 456h1600M0 566h1600" stroke="#434d48" stroke-width="5"/></svg>