<svg xmlns="http://www.w3.org/2000/svg" width="1600" height="600" viewBox="0 0 1600 600"><rect width="1600" height="600" fill="#d9ceb0"/><circle cx="1200" cy="108" r="58" fill="#f2df9a"/><path d="M0 292l210-121 235 96 244-165 278 154 218-123 263 157 152-107v417H0z" fill="#9eaa92" stroke="none" stroke-width="2.5" stroke-linejoin="round" stroke-linecap="round"/><path d="M0 371q290-69 555-2t575-18 470 22v227H0z" fill="#a2a47d" stroke="none" stroke-width="2.5" stroke-linejoin="round" stroke-linecap="round"/><path d="M210 404V239h29v165zM202 238v-19h45v19zM202 402h45v15h-45z" fill="#e1d0a4" stroke="#242b30" stroke-width="2.5" stroke-linejoin="round" stroke-linecap="round"/><path d="M220 253h8v137h-8z" fill="#b19e78" stroke="#242b30" stroke-width="2.5" stroke-linejoin="round" stroke-linecap="round"/><path d="M410 404V239h29v165zM402 238v-19h45v19zM402 402h45v15h-45z" fill="#e1d0a4" stroke="#242b30" stroke-width="2.5" stroke-linejoin="round" stroke-linecap="round"/><path d="M420 253h8v137h-8z" fill="#b19e78" stroke="#242b30" stroke-width="2.5" stroke-linejoin="round" stroke-linecap="round"/><path d="M1110 404V239h29v165zM1102 238v-19h45v19zM1102 402h45v15h-45z" fill="#e1d0a4" stroke="#242b30" stroke-width="2.5" stroke-linejoin="round" stroke-linecap="round"/><path d="M1120 253h8v137h-8z" fill="#b19e78" stroke="#242b30" stroke-width="2.5" stroke-linejoin="round" stroke-linecap="round"/><path d="M1330 404V239h29v165zM1322 238v-19h45v19zM1322 402h45v15h-45z" fill="#e1d0a4" stroke="#242b30" stroke-width="2.5" stroke-linejoin="round" stroke-linecap="round"/><path d="M1340 253h8v137h-8z" fill="#b19e78" stroke="#242b30" stroke-width="2.5" stroke-linejoin="round" stroke-linecap="round"/><path d="M188 219l139-58 139 58z" fill="#d6c394" stroke="#242b30" stroke-width="2.5" stroke-linejoin="round" stroke-linecap="round"/><path d="M0 481q400-26 800 0t800 0v119H0z" fill="#cbb28b" stroke="none" stroke-width="2.5" stroke-linejoin="round" stroke-linecap="round"/></svg>