<svg xmlns="http://www.w3.org/2000/svg" width="192" height="192" viewBox="0 0 192 192"><path d="M85 123L80 148 82 168" fill="none" stroke="#242b30" stroke-width="18" stroke-linejoin="round" stroke-linecap="round"/><path d="M85 123L80 148 82 168" fill="none" stroke="#254c51" stroke-width="14" stroke-linejoin="round" stroke-linecap="round"/><path d="M76 164l11 1 3 6 7 2v3H74z" fill="#6e4c36" stroke="#242b30" stroke-width="2.5" stroke-linejoin="round" stroke-linecap="round"/><path d="M76 174h19" fill="none" stroke="#b58b59" stroke-width="2" stroke-linejoin="round" stroke-linecap="round"/><path d="M102 123L104 148 105 168" fill="none" stroke="#242b30" stroke-width="18" stroke-linejoin="round" stroke-linecap="round"/><path d="M102 123L104 148 105 168" fill="none" stroke="#354d54" stroke-width="14" stroke-linejoin="round" stroke-linecap="round"/><path d="M99 164l11 1 3 6 7 2v3H97z" fill="#6e4c36" stroke="#242b30" stroke-width="2.5" stroke-linejoin="round" stroke-linecap="round"/><path d="M99 174h19" fill="none" stroke="#b58b59" stroke-width="2" stroke-linejoin="round" stroke-linecap="round"/><g transform="translate(0 0)"><path d="M76 79q-12 29-17 65l22-10 8-49z" fill="#254c51" stroke="#242b30" stroke-width="2.5" stroke-linejoin="round" stroke-linecap="round"/><path d="M73 95l-10 38" fill="none" stroke="#357c78" stroke-width="4" stroke-linejoin="round" stroke-linecap="round"/><path d="M66 83q18-12 53 0l9 42q-25 13-60 0z" fill="#357c78" stroke="#242b30" stroke-width="2.5" stroke-linejoin="round" stroke-linecap="round"/><path d="M66 83l17 5 20-7 9 29-23 10-22-11z" fill="#c5974c" stroke="#242b30" stroke-width="2.5" stroke-linejoin="round" stroke-linecap="round"/><path d="M80 92q12 6 25-1" fill="none" stroke="#f1d28a" stroke-width="3" stroke-linejoin="round" stroke-linecap="round"/><path d="M79 104l17 8 16-8" fill="none" stroke="#876037" stroke-width="2" stroke-linejoin="round" stroke-linecap="round"/><path d="M72 124h46l4 13-10-2-6 7-12-5-12 6-12-7z" fill="#254c51" stroke="#242b30" stroke-width="2.5" stroke-linejoin="round" stroke-linecap="round"/><path d="M75 123h40" fill="none" stroke="#6e4c36" stroke-width="6" stroke-linejoin="round" stroke-linecap="round"/><path d="M91 120h9v8h-9z" fill="#c5974c" stroke="#242b30" stroke-width="2.5" stroke-linejoin="round" stroke-linecap="round"/><path d="M83 68v14h23V65" fill="#b67f61" stroke="#242b30" stroke-width="2.5" stroke-linejoin="round" stroke-linecap="round"/><path d="M79 43Q86 31 102 35Q113 38 114 52l7 9-7 4-2 9q-9 8-23 0l-9-9z" fill="#dfb18c" stroke="#242b30" stroke-width="2.5" stroke-linejoin="round" stroke-linecap="round"/><path d="M91 69q9 5 19 0l-1 5q-10 6-19-1z" fill="#b67f61" stroke="none" stroke-width="2.5" stroke-linejoin="round" stroke-linecap="round"/><ellipse cx="83" cy="59" rx="5" ry="7" fill="#dfb18c" stroke="#242b30" stroke-width="2.5"/><path d="M82 56q4-2 4 3" fill="none" stroke="#b67f61" stroke-width="1.5" stroke-linejoin="round" stroke-linecap="round"/><path d="M102 51l8 1" fill="none" stroke="#242b30" stroke-width="2.5" stroke-linejoin="round" stroke-linecap="round"/><ellipse cx="108" cy="56" rx="1.8" ry="2" fill="#242b30" stroke="none" stroke-width="2.5"/><path d="M108 68h5" fill="none" stroke="#784b3b" stroke-width="1.8" stroke-linejoin="round" stroke-linecap="round"/><path d="M75 52q-4-26 22-29 24 0 25 27l-15-7-22 7-2 26-10-5z" fill="#c5974c" stroke="#242b30" stroke-width="2.5" stroke-linejoin="round" stroke-linecap="round"/><path d="M78 47q21-14 41-2l3 6-16-5-22 8z" fill="#876037" stroke="none" stroke-width="2.5" stroke-linejoin="round" stroke-linecap="round"/><path d="M81 38q12-13 28-7" fill="none" stroke="#f1d28a" stroke-width="3" stroke-linejoin="round" stroke-linecap="round"/><path d="M78 56v11" fill="none" stroke="#f1d28a" stroke-width="2" stroke-linejoin="round" stroke-linecap="round"/><path d="M84 25q8-20 29-10l6 11q-19-7-28 3z" fill="#357c78" stroke="#242b30" stroke-width="2.5" stroke-linejoin="round" stroke-linecap="round"/><path d="M93 18q12-4 18 2" fill="none" stroke="#8fc6ad" stroke-width="2" stroke-linejoin="round" stroke-linecap="round"/><path d="M83 27l-1-12 9 7 8-15 7 14 12-6-4 17z" fill="#c5974c" stroke="#242b30" stroke-width="2.5" stroke-linejoin="round" stroke-linecap="round"/></g><path d="M70 86L65 101 69 112" fill="none" stroke="#242b30" stroke-width="14" stroke-linejoin="round" stroke-linecap="round"/><path d="M70 86L65 101 69 112" fill="none" stroke="#254c51" stroke-width="10" stroke-linejoin="round" stroke-linecap="round"/><g transform="translate(69 112) rotate(-8)"><ellipse cx="0" cy="0" rx="31" ry="35" fill="#c5974c" stroke="#242b30" stroke-width="2.5"/><ellipse cx="0" cy="0" rx="25" ry="29" fill="#254c51" stroke="#242b30" stroke-width="2.5"/><ellipse cx="0" cy="0" rx="17" ry="20" fill="#357c78" stroke="#242b30" stroke-width="2.5"/><ellipse cx="0" cy="0" rx="8" ry="9" fill="#c5974c" stroke="#242b30" stroke-width="2.5"/><path d="M-14-21q10-8 23-1" fill="none" stroke="#f1d28a" stroke-width="3" stroke-linejoin="round" stroke-linecap="round"/></g><path d="M116 86L116 102 124 107" fill="none" stroke="#242b30" stroke-width="14" stroke-linejoin="round" stroke-linecap="round"/><path d="M116 86L116 102 124 107" fill="none" stroke="#357c78" stroke-width="10" stroke-linejoin="round" stroke-linecap="round"/><g transform="translate(124 107)"><g transform="rotate(0)"><path d="M0 9V-24" fill="none" stroke="#242b30" stroke-width="8" stroke-linejoin="round" stroke-linecap="round"/><path d="M0 9V-24" fill="none" stroke="#6e4c36" stroke-width="4" stroke-linejoin="round" stroke-linecap="round"/><path d="M-3-27l1-35 6-9 5 9-3 35z" fill="#c5974c" stroke="#242b30" stroke-width="2.5" stroke-linejoin="round" stroke-linecap="round"/><path d="M2-59v26" fill="none" stroke="#f1d28a" stroke-width="2" stroke-linejoin="round" stroke-linecap="round"/><path d="M-9-25h18" fill="none" stroke="#876037" stroke-width="5" stroke-linejoin="round" stroke-linecap="round"/><path d="M-3-20v19" fill="none" stroke="#eee0bc" stroke-width="3" stroke-linejoin="round" stroke-linecap="round"/></g></g><ellipse cx="124" cy="107" rx="5.5" ry="5" fill="#dfb18c" stroke="#242b30" stroke-width="2.5"/><path d="M122 105l4 1" fill="none" stroke="#b67f61" stroke-width="1.5" stroke-linejoin="round" stroke-linecap="round"/><ellipse cx="96" cy="99" rx="9" ry="10" fill="#c5974c" stroke="#242b30" stroke-width="2.5"/><path d="M92 99l4-5 4 5-4 5z" fill="#357c78" stroke="none" stroke-width="2.5" stroke-linejoin="round" stroke-linecap="round"/></svg>