<svg xmlns="http://www.w3.org/2000/svg" width="192" height="192" viewBox="0 0 192 192"><path d="M87 124L81 147 82 167" fill="none" stroke="#242b30" stroke-width="13" stroke-linejoin="round" stroke-linecap="round"/><path d="M87 124L81 147 82 167" fill="none" stroke="#613f3c" stroke-width="9" stroke-linejoin="round" stroke-linecap="round"/><path d="M76 161h10l3 10 8 2v3H75z" fill="#785238" stroke="#242b30" stroke-width="2.5" stroke-linejoin="round" stroke-linecap="round"/><path d="M78 173h15" fill="none" stroke="#af8352" stroke-width="2" stroke-linejoin="round" stroke-linecap="round"/><path d="M100 124L107 147 107 167" fill="none" stroke="#242b30" stroke-width="13" stroke-linejoin="round" stroke-linecap="round"/><path d="M100 124L107 147 107 167" fill="none" stroke="#984b42" stroke-width="9" stroke-linejoin="round" stroke-linecap="round"/><path d="M101 161h10l3 10 8 2v3H100z" fill="#785238" stroke="#242b30" stroke-width="2.5" stroke-linejoin="round" stroke-linecap="round"/><path d="M103 173h15" fill="none" stroke="#af8352" stroke-width="2" stroke-linejoin="round" stroke-linecap="round"/><g transform="translate(0 0)"><path d="M76 82q18-10 35 0l7 44q-25 11-44 0z" fill="#984b42" stroke="#242b30" stroke-width="2.5" stroke-linejoin="round" stroke-linecap="round"/><path d="M78 83l15 3 18-5 8 37-24 5-22-6z" fill="#91a4ad" stroke="#242b30" stroke-width="2.5" stroke-linejoin="round" stroke-linecap="round"/><path d="M81 94h32" fill="none" stroke="#526873" stroke-width="2" stroke-linejoin="round" stroke-linecap="round"/><path d="M86 90v4M96 90v4M106 90v4" fill="none" stroke="#d6e2df" stroke-width="1.5" stroke-linejoin="round" stroke-linecap="round"/><path d="M81 103h32" fill="none" stroke="#526873" stroke-width="2" stroke-linejoin="round" stroke-linecap="round"/><path d="M86 99v4M96 99v4M106 99v4" fill="none" stroke="#d6e2df" stroke-width="1.5" stroke-linejoin="round" stroke-linecap="round"/><path d="M81 112h32" fill="none" stroke="#526873" stroke-width="2" stroke-linejoin="round" stroke-linecap="round"/><path d="M86 108v4M96 108v4M106 108v4" fill="none" stroke="#d6e2df" stroke-width="1.5" stroke-linejoin="round" stroke-linecap="round"/><path d="M76 122h38" fill="none" stroke="#785238" stroke-width="6" stroke-linejoin="round" stroke-linecap="round"/><path d="M93 119h8v7h-8z" fill="#91a4ad" stroke="#242b30" stroke-width="2.5" stroke-linejoin="round" stroke-linecap="round"/><path d="M85 67v16h20V66" fill="#b67f61" stroke="#242b30" stroke-width="2.5" stroke-linejoin="round" stroke-linecap="round"/><path d="M79 44q7-13 24-9 12 3 12 18l7 9-7 3-2 8q-9 8-22 0l-10-9z" fill="#dfb18c" stroke="#242b30" stroke-width="2.5" stroke-linejoin="round" stroke-linecap="round"/><path d="M91 70q10 4 20-1l-2 5q-9 5-18-1z" fill="#b67f61" stroke="none" stroke-width="2.5" stroke-linejoin="round" stroke-linecap="round"/><ellipse cx="83" cy="58" rx="5" ry="7" fill="#dfb18c" stroke="#242b30" stroke-width="2.5"/><path d="M82 55q4 0 4 4" fill="none" stroke="#b67f61" stroke-width="1.5" stroke-linejoin="round" stroke-linecap="round"/><path d="M103 49l8 1" fill="none" stroke="#242b30" stroke-width="2" stroke-linejoin="round" stroke-linecap="round"/><ellipse cx="109" cy="55" rx="1.8" ry="2" fill="#242b30" stroke="none" stroke-width="2.5"/><path d="M110 68h4" fill="none" stroke="#784b3b" stroke-width="1.7" stroke-linejoin="round" stroke-linecap="round"/><path d="M76 45Q75 23 97 22q21 0 23 21l-13-3-19 2-7 9z" fill="#91a4ad" stroke="#242b30" stroke-width="2.5" stroke-linejoin="round" stroke-linecap="round"/><path d="M76 44l7-2-1 25-8 5z" fill="#526873" stroke="#242b30" stroke-width="2.5" stroke-linejoin="round" stroke-linecap="round"/><path d="M79 43q18-9 40 0" fill="none" stroke="#d6e2df" stroke-width="2.5" stroke-linejoin="round" stroke-linecap="round"/><path d="M82 34q11-12 24-5" fill="none" stroke="#d6e2df" stroke-width="2.5" stroke-linejoin="round" stroke-linecap="round"/><path d="M78 87L68 102 73 113" fill="none" stroke="#242b30" stroke-width="13" stroke-linejoin="round" stroke-linecap="round"/><path d="M78 87L68 102 73 113" fill="none" stroke="#613f3c" stroke-width="9" stroke-linejoin="round" stroke-linecap="round"/><ellipse cx="73" cy="113" rx="5" ry="5" fill="#dfb18c" stroke="#242b30" stroke-width="2.5"/><g transform="translate(57 121) rotate(-2)"><path d="M-33-39q31-13 65 0l-2 74-30 17-31-17z" fill="#526873" stroke="#242b30" stroke-width="2.5" stroke-linejoin="round" stroke-linecap="round"/><path d="M-27-35q26-10 53 0l-2 66-24 14-25-14z" fill="#984b42" stroke="#242b30" stroke-width="2.5" stroke-linejoin="round" stroke-linecap="round"/><path d="M0-37v77" fill="none" stroke="#91a4ad" stroke-width="7" stroke-linejoin="round" stroke-linecap="round"/><path d="M-25-10h49M-25 22h48" fill="none" stroke="#91a4ad" stroke-width="5" stroke-linejoin="round" stroke-linecap="round"/><ellipse cx="0" cy="6" rx="11" ry="13" fill="#91a4ad" stroke="#242b30" stroke-width="2.5"/><path d="M-5 0l5-3" fill="none" stroke="#d6e2df" stroke-width="3" stroke-linejoin="round" stroke-linecap="round"/><path d="M-25-30v60M23-30v60" fill="none" stroke="#d6e2df" stroke-width="2" stroke-linejoin="round" stroke-linecap="round"/></g><path d="M110 87L125.5 106 141 111" fill="none" stroke="#242b30" stroke-width="13" stroke-linejoin="round" stroke-linecap="round"/><path d="M110 87L125.5 106 141 111" fill="none" stroke="#984b42" stroke-width="9" stroke-linejoin="round" stroke-linecap="round"/><g transform="translate(141 111) rotate(22)"><path d="M0 12V-12" fill="none" stroke="#242b30" stroke-width="7" stroke-linejoin="round" stroke-linecap="round"/><path d="M0 10V-11" fill="none" stroke="#af8352" stroke-width="4" stroke-linejoin="round" stroke-linecap="round"/><path d="M-4-16l1-41 4-9 5 9-2 41z" fill="#91a4ad" stroke="#242b30" stroke-width="2.5" stroke-linejoin="round" stroke-linecap="round"/><path d="M1-55v35" fill="none" stroke="#d6e2df" stroke-width="2" stroke-linejoin="round" stroke-linecap="round"/><path d="M-10-14h20" fill="none" stroke="#526873" stroke-width="5" stroke-linejoin="round" stroke-linecap="round"/></g><ellipse cx="141" cy="111" rx="5.5" ry="5" fill="#dfb18c" stroke="#242b30" stroke-width="2.5"/><path d="M139 109l4 1" fill="none" stroke="#b67f61" stroke-width="1.5" stroke-linejoin="round" stroke-linecap="round"/></g></svg>