<svg xmlns="http://www.w3.org/2000/svg" width="192" height="192" viewBox="0 0 192 192"><path d="M85 123L80 148 82 168" fill="none" stroke="#242b30" stroke-width="14" stroke-linejoin="round" stroke-linecap="round"/><path d="M85 123L80 148 82 168" fill="none" stroke="#b67f61" stroke-width="10" stroke-linejoin="round" stroke-linecap="round"/><path d="M76 164l11 1 3 6 7 2v3H74z" fill="#6e4c36" stroke="#242b30" stroke-width="2.5" stroke-linejoin="round" stroke-linecap="round"/><path d="M76 174h19" fill="none" stroke="#b58b59" stroke-width="2" stroke-linejoin="round" stroke-linecap="round"/><path d="M102 123L104 148 105 168" fill="none" stroke="#242b30" stroke-width="14" stroke-linejoin="round" stroke-linecap="round"/><path d="M102 123L104 148 105 168" fill="none" stroke="#dfb18c" stroke-width="10" stroke-linejoin="round" stroke-linecap="round"/><path d="M99 164l11 1 3 6 7 2v3H97z" fill="#6e4c36" stroke="#242b30" stroke-width="2.5" stroke-linejoin="round" stroke-linecap="round"/><path d="M99 174h19" fill="none" stroke="#b58b59" stroke-width="2" stroke-linejoin="round" stroke-linecap="round"/><g transform="translate(0 0)"><path d="M75 83q18-12 36 0l9 42q-25 13-43 0z" fill="#6e4c36" stroke="#242b30" stroke-width="2.5" stroke-linejoin="round" stroke-linecap="round"/><path d="M75 84l10-6 13 11 12-10 11 6-5 19-10-4-9 9-10-8-10 6z" fill="#45362f" stroke="#242b30" stroke-width="2.5" stroke-linejoin="round" stroke-linecap="round"/><path d="M82 98l23 25" fill="none" stroke="#a24b45" stroke-width="6" stroke-linejoin="round" stroke-linecap="round"/><path d="M82 98l23 25" fill="none" stroke="#e99978" stroke-width="2" stroke-linejoin="round" stroke-linecap="round"/><path d="M72 124h46l4 13-10-2-6 7-12-5-12 6-12-7z" fill="#6e4c36" stroke="#242b30" stroke-width="2.5" stroke-linejoin="round" stroke-linecap="round"/><path d="M75 123h40" fill="none" stroke="#6e4c36" stroke-width="6" stroke-linejoin="round" stroke-linecap="round"/><path d="M91 120h9v8h-9z" fill="#c5974c" stroke="#242b30" stroke-width="2.5" stroke-linejoin="round" stroke-linecap="round"/><path d="M83 68v14h23V65" fill="#b67f61" stroke="#242b30" stroke-width="2.5" stroke-linejoin="round" stroke-linecap="round"/><path d="M79 43Q86 31 102 35Q113 38 114 52l7 9-7 4-2 9q-9 8-23 0l-9-9z" fill="#dfb18c" stroke="#242b30" stroke-width="2.5" stroke-linejoin="round" stroke-linecap="round"/><path d="M91 69q9 5 19 0l-1 5q-10 6-19-1z" fill="#b67f61" stroke="none" stroke-width="2.5" stroke-linejoin="round" stroke-linecap="round"/><ellipse cx="83" cy="59" rx="5" ry="7" fill="#dfb18c" stroke="#242b30" stroke-width="2.5"/><path d="M82 56q4-2 4 3" fill="none" stroke="#b67f61" stroke-width="1.5" stroke-linejoin="round" stroke-linecap="round"/><path d="M102 51l8 1" fill="none" stroke="#242b30" stroke-width="2.5" stroke-linejoin="round" stroke-linecap="round"/><ellipse cx="108" cy="56" rx="1.8" ry="2" fill="#242b30" stroke="none" stroke-width="2.5"/><path d="M108 68h5" fill="none" stroke="#784b3b" stroke-width="1.8" stroke-linejoin="round" stroke-linecap="round"/><path d="M77 56q-8-22 9-29 16-8 28 9l2 11-14-7-9 2-6 12-4-2-2 9z" fill="#45362f" stroke="#242b30" stroke-width="2.5" stroke-linejoin="round" stroke-linecap="round"/><path d="M81 39q8-11 18-8" fill="none" stroke="#76604a" stroke-width="3" stroke-linejoin="round" stroke-linecap="round"/></g><path d="M78 86L65 101 88 108" fill="none" stroke="#242b30" stroke-width="14" stroke-linejoin="round" stroke-linecap="round"/><path d="M78 86L65 101 88 108" fill="none" stroke="#b67f61" stroke-width="10" stroke-linejoin="round" stroke-linecap="round"/><path d="M109 86L116 102 124 107" fill="none" stroke="#242b30" stroke-width="14" stroke-linejoin="round" stroke-linecap="round"/><path d="M109 86L116 102 124 107" fill="none" stroke="#dfb18c" stroke-width="10" stroke-linejoin="round" stroke-linecap="round"/><g transform="translate(124 107)"><g transform="rotate(0)"><path d="M0 9V-24" fill="none" stroke="#242b30" stroke-width="8" stroke-linejoin="round" stroke-linecap="round"/><path d="M0 9V-24" fill="none" stroke="#6e4c36" stroke-width="4" stroke-linejoin="round" stroke-linecap="round"/><path d="M-7-46l14-4 9 9-4 18-17 1-8-9z" fill="#77858a" stroke="#242b30" stroke-width="2.5" stroke-linejoin="round" stroke-linecap="round"/><path d="M-7-38l9-6" fill="none" stroke="#b9c3b8" stroke-width="3" stroke-linejoin="round" stroke-linecap="round"/><path d="M-3-20v19" fill="none" stroke="#eee0bc" stroke-width="3" stroke-linejoin="round" stroke-linecap="round"/></g></g><ellipse cx="124" cy="107" rx="5.5" ry="5" fill="#dfb18c" stroke="#242b30" stroke-width="2.5"/><path d="M122 105l4 1" fill="none" stroke="#b67f61" stroke-width="1.5" stroke-linejoin="round" stroke-linecap="round"/></svg>