<svg xmlns="http://www.w3.org/2000/svg" width="320" height="192" viewBox="0 0 320 192"><g transform="translate(60 0)"><g transform="translate(0 176) scale(1 1.06) translate(0 -176)"><path d="M86 125Q83 138 81 148" fill="none" stroke="#17232d" stroke-width="14" stroke-linecap="round" stroke-linejoin="round"/><path d="M86 125Q83 138 81 148" fill="none" stroke="#412f3b" stroke-width="11" stroke-linecap="round" stroke-linejoin="round"/><path d="M81 148Q77 158 79 169" fill="none" stroke="#17232d" stroke-width="12" stroke-linecap="round" stroke-linejoin="round"/><path d="M81 148Q77 158 79 169" fill="none" stroke="#412f3b" stroke-width="9" stroke-linecap="round" stroke-linejoin="round"/><ellipse cx="81" cy="148" rx="5" ry="4" fill="#412f3b" stroke="#17232d" stroke-width="2"/><g transform="translate(79 176) rotate(0 0 0)"><path d="M-7-9q5-3 10 0l3 6 9 1q4 2 2 5H-7z" fill="#28323a" stroke="#17232d" stroke-width="2" stroke-linecap="round" stroke-linejoin="round"/><path d="M-4-7q4-2 7 0" fill="none" stroke="#a56b68" stroke-width="1.5" stroke-linecap="round" stroke-linejoin="round"/></g><path d="M107 125Q113 138 111 148" fill="none" stroke="#17232d" stroke-width="14" stroke-linecap="round" stroke-linejoin="round"/><path d="M107 125Q113 138 111 148" fill="none" stroke="#7b5961" stroke-width="11" stroke-linecap="round" stroke-linejoin="round"/><path d="M111 148Q111 158 113 169" fill="none" stroke="#17232d" stroke-width="12" stroke-linecap="round" stroke-linejoin="round"/><path d="M111 148Q111 158 113 169" fill="none" stroke="#412f3b" stroke-width="9" stroke-linecap="round" stroke-linejoin="round"/><ellipse cx="111" cy="148" rx="5" ry="4" fill="#653f4c" stroke="#17232d" stroke-width="2"/><g transform="translate(113 176) rotate(0 0 0)"><path d="M-7-9q5-3 10 0l3 6 9 1q4 2 2 5H-7z" fill="#28323a" stroke="#17232d" stroke-width="2" stroke-linecap="round" stroke-linejoin="round"/><path d="M-4-7q4-2 7 0" fill="none" stroke="#a56b68" stroke-width="1.5" stroke-linecap="round" stroke-linejoin="round"/></g><g transform="translate(0 0)"><path d="M72 83q9-10 23-9l14 1q13 3 17 14l-2 41q-14 12-27 13-16 0-27-12z" fill="#7b5961" stroke="#17232d" stroke-width="2" stroke-linecap="round" stroke-linejoin="round"/><path d="M76 85q8-7 22-7 17 1 24 10l-3 35q-21 10-42 1z" fill="#7b5961" stroke="#17232d" stroke-width="2" stroke-linecap="round" stroke-linejoin="round"/><path d="M85 88q13 3 27-2l5 29q-16 8-31 2z" fill="#7b5961" stroke="#17232d" stroke-width="2" stroke-linecap="round" stroke-linejoin="round"/><path d="M83 93q17 6 32 0M86 113q14 6 28 0" fill="none" stroke="#a56b68" stroke-width="2" stroke-linecap="round" stroke-linejoin="round"/><path d="M74 126q23 8 49-1" fill="none" stroke="#412f3b" stroke-width="6" stroke-linecap="round" stroke-linejoin="round"/><path d="M73 130q22 9 51 0l-4 14q-23 4-43-2z" fill="#7b5961" stroke="#17232d" stroke-width="2" stroke-linecap="round" stroke-linejoin="round"/><path d="M68 88q-11 7-12 20l9 9 12-23z" fill="#412f3b" stroke="#17232d" stroke-width="2" stroke-linecap="round" stroke-linejoin="round"/><path d="M60 104q5-4 11 0l1 23-12 3z" fill="#34464f" stroke="#17232d" stroke-width="2" stroke-linecap="round" stroke-linejoin="round"/><path d="M62 111l8-2" fill="none" stroke="#e7956e" stroke-width="2" stroke-linecap="round" stroke-linejoin="round"/></g><g transform="translate(0 0)"><path d="M88 65q9 4 19-1l-1 15H90z" fill="#ad7460" stroke="#17232d" stroke-width="2" stroke-linecap="round" stroke-linejoin="round"/><path d="M80 42q5-13 20-14 14 1 18 15l-1 10 6 5-6 4-3 8q-10 8-23 2-13-8-11-30z" fill="#e6b38e" stroke="#17232d" stroke-width="2" stroke-linecap="round" stroke-linejoin="round"/><ellipse cx="80" cy="56" rx="5" ry="7" fill="#e6b38e" stroke="#17232d" stroke-width="2"/><path d="M102 48q5-3 10-1" fill="none" stroke="#412f3b" stroke-width="1.8" stroke-linecap="round" stroke-linejoin="round"/><circle cx="109" cy="53" r="1.8" fill="#17232d" stroke="none" stroke-width="2"/><path d="M114 64q-6 4-11 2" fill="none" stroke="#ad7460" stroke-width="1.8" stroke-linecap="round" stroke-linejoin="round"/><path d="M82 41q2-8 10-10-3 13-2 28l-6 4z" fill="#412f3b" stroke="#17232d" stroke-width="2" stroke-linecap="round" stroke-linejoin="round"/><path d="M72 39q6-18 25-19 21 0 27 19l-8 6H76z" fill="#412f3b" stroke="#17232d" stroke-width="2" stroke-linecap="round" stroke-linejoin="round"/><path d="M74 39q25-7 49 1l-8 7H77z" fill="#a56b68" stroke="#17232d" stroke-width="2" stroke-linecap="round" stroke-linejoin="round"/><path d="M83 27q12-4 24 0l-2 8H84z" fill="#34464f" stroke="#17232d" stroke-width="2" stroke-linecap="round" stroke-linejoin="round"/><circle cx="96" cy="31" r="3" fill="#e7956e" stroke="#17232d" stroke-width="2"/></g><path d="M77 91L63 105 69 111" fill="none" stroke="#17232d" stroke-width="12" stroke-linecap="round" stroke-linejoin="round"/><path d="M77 91L63 105 69 111" fill="none" stroke="#412f3b" stroke-width="9" stroke-linecap="round" stroke-linejoin="round"/><path d="M115 91L131 106 137 95" fill="none" stroke="#17232d" stroke-width="12" stroke-linecap="round" stroke-linejoin="round"/><path d="M115 91L131 106 137 95" fill="none" stroke="#7b5961" stroke-width="9" stroke-linecap="round" stroke-linejoin="round"/><ellipse cx="69" cy="111" rx="5" ry="4" fill="#34464f" stroke="#17232d" stroke-width="2"/><ellipse cx="137" cy="95" rx="5" ry="4" fill="#34464f" stroke="#17232d" stroke-width="2"/><g transform="translate(0 0)"><path d="M134 84h26v20h-26z" fill="#34464f" stroke="#17232d" stroke-width="2" stroke-linecap="round" stroke-linejoin="round"/><path d="M139 88h16v11h-16z" fill="#9ed4dc" stroke="#17232d" stroke-width="2" stroke-linecap="round" stroke-linejoin="round"/><circle cx="160" cy="94" r="6" fill="#28323a" stroke="#17232d" stroke-width="2"/><circle cx="160" cy="94" r="3" fill="#e7956e" stroke="#17232d" stroke-width="2"/></g><path d="M46 114l10-13 9 8 2 26-18 7z" fill="#412f3b" stroke="#17232d" stroke-width="2" stroke-linecap="round" stroke-linejoin="round"/><path d="M50 120h15v14H50z" fill="#e7956e" stroke="#17232d" stroke-width="2" stroke-linecap="round" stroke-linejoin="round"/></g></g></svg>