<svg xmlns="http://www.w3.org/2000/svg" width="192" height="192" viewBox="0 0 192 192"><path d="M85 123L80 148 82 168" fill="none" stroke="#242b30" stroke-width="18" stroke-linejoin="round" stroke-linecap="round"/><path d="M85 123L80 148 82 168" fill="none" stroke="#b67f61" stroke-width="14" stroke-linejoin="round" stroke-linecap="round"/><path d="M76 164l11 1 3 6 7 2v3H74z" fill="#6e4c36" stroke="#242b30" stroke-width="2.5" stroke-linejoin="round" stroke-linecap="round"/><path d="M76 174h19" fill="none" stroke="#b58b59" stroke-width="2" stroke-linejoin="round" stroke-linecap="round"/><path d="M102 123L104 148 105 168" fill="none" stroke="#242b30" stroke-width="18" stroke-linejoin="round" stroke-linecap="round"/><path d="M102 123L104 148 105 168" fill="none" stroke="#dfb18c" stroke-width="14" stroke-linejoin="round" stroke-linecap="round"/><path d="M99 164l11 1 3 6 7 2v3H97z" fill="#6e4c36" stroke="#242b30" stroke-width="2.5" stroke-linejoin="round" stroke-linecap="round"/><path d="M99 174h19" fill="none" stroke="#b58b59" stroke-width="2" stroke-linejoin="round" stroke-linecap="round"/><g transform="translate(0 0)"><path d="M76 79q-12 29-17 65l22-10 8-49z" fill="#653b3e" stroke="#242b30" stroke-width="2.5" stroke-linejoin="round" stroke-linecap="round"/><path d="M73 95l-10 38" fill="none" stroke="#a24b45" stroke-width="4" stroke-linejoin="round" stroke-linecap="round"/><path d="M66 83q18-12 53 0l9 42q-25 13-60 0z" fill="#6e4c36" stroke="#242b30" stroke-width="2.5" stroke-linejoin="round" stroke-linecap="round"/><path d="M66 84l10-6 13 11 12-10 11 6-5 19-10-4-9 9-10-8-10 6z" fill="#45362f" stroke="#242b30" stroke-width="2.5" stroke-linejoin="round" stroke-linecap="round"/><path d="M82 98l23 25" fill="none" stroke="#a24b45" stroke-width="6" stroke-linejoin="round" stroke-linecap="round"/><path d="M82 98l23 25" fill="none" stroke="#e99978" stroke-width="2" stroke-linejoin="round" stroke-linecap="round"/><path d="M72 124h46l4 13-10-2-6 7-12-5-12 6-12-7z" fill="#6e4c36" stroke="#242b30" stroke-width="2.5" stroke-linejoin="round" stroke-linecap="round"/><path d="M75 123h40" fill="none" stroke="#6e4c36" stroke-width="6" stroke-linejoin="round" stroke-linecap="round"/><path d="M91 120h9v8h-9z" fill="#c5974c" stroke="#242b30" stroke-width="2.5" stroke-linejoin="round" stroke-linecap="round"/><path d="M83 68v14h23V65" fill="#b67f61" stroke="#242b30" stroke-width="2.5" stroke-linejoin="round" stroke-linecap="round"/><path d="M79 43Q86 31 102 35Q113 38 114 52l7 9-7 4-2 9q-9 8-23 0l-9-9z" fill="#dfb18c" stroke="#242b30" stroke-width="2.5" stroke-linejoin="round" stroke-linecap="round"/><path d="M91 69q9 5 19 0l-1 5q-10 6-19-1z" fill="#b67f61" stroke="none" stroke-width="2.5" stroke-linejoin="round" stroke-linecap="round"/><ellipse cx="83" cy="59" rx="5" ry="7" fill="#dfb18c" stroke="#242b30" stroke-width="2.5"/><path d="M82 56q4-2 4 3" fill="none" stroke="#b67f61" stroke-width="1.5" stroke-linejoin="round" stroke-linecap="round"/><path d="M102 51l8 1" fill="none" stroke="#242b30" stroke-width="2.5" stroke-linejoin="round" stroke-linecap="round"/><ellipse cx="108" cy="56" rx="1.8" ry="2" fill="#242b30" stroke="none" stroke-width="2.5"/><path d="M108 68h5" fill="none" stroke="#784b3b" stroke-width="1.8" stroke-linejoin="round" stroke-linecap="round"/><path d="M77 56q-8-22 9-29 16-8 28 9l2 11-14-7-9 2-6 12-4-2-2 9z" fill="#45362f" stroke="#242b30" stroke-width="2.5" stroke-linejoin="round" stroke-linecap="round"/><path d="M81 39q8-11 18-8" fill="none" stroke="#76604a" stroke-width="3" stroke-linejoin="round" stroke-linecap="round"/><path d="M73 42q-3-25 23-28 23 1 25 27l-12-6-8 7-9-6-13 9z" fill="#45362f" stroke="#242b30" stroke-width="2.5" stroke-linejoin="round" stroke-linecap="round"/><path d="M76 28Q63 22 64 12q5 8 15 9M112 23q10-2 13-11 3 12-10 18" fill="#e4d5ab" stroke="#242b30" stroke-width="2.5" stroke-linejoin="round" stroke-linecap="round"/><path d="M88 67l24 1-6 14-12 3-9-10z" fill="#45362f" stroke="#242b30" stroke-width="2.5" stroke-linejoin="round" stroke-linecap="round"/></g><path d="M70 86L65 101 69 112" fill="none" stroke="#242b30" stroke-width="14" stroke-linejoin="round" stroke-linecap="round"/><path d="M70 86L65 101 69 112" fill="none" stroke="#b67f61" stroke-width="10" stroke-linejoin="round" stroke-linecap="round"/><g transform="translate(69 112) rotate(-8)"><path d="M-22-29q21-12 42 0l-2 45-19 16-21-16z" fill="#6e4c36" stroke="#242b30" stroke-width="2.5" stroke-linejoin="round" stroke-linecap="round"/><path d="M-16-25l7-3 1 50-9-9z" fill="#b58b59" stroke="none" stroke-width="2.5" stroke-linejoin="round" stroke-linecap="round"/><path d="M8-27v46" fill="none" stroke="#b58b59" stroke-width="3" stroke-linejoin="round" stroke-linecap="round"/><ellipse cx="0" cy="0" rx="7" ry="8" fill="#e4d5ab" stroke="#242b30" stroke-width="2.5"/></g><path d="M116 86L116 102 124 107" fill="none" stroke="#242b30" stroke-width="14" stroke-linejoin="round" stroke-linecap="round"/><path d="M116 86L116 102 124 107" fill="none" stroke="#dfb18c" stroke-width="10" stroke-linejoin="round" stroke-linecap="round"/><g transform="translate(124 107)"><g transform="rotate(0)"><path d="M0 9V-24" fill="none" stroke="#242b30" stroke-width="8" stroke-linejoin="round" stroke-linecap="round"/><path d="M0 9V-24" fill="none" stroke="#6e4c36" stroke-width="4" stroke-linejoin="round" stroke-linecap="round"/><path d="M-7-46l14-4 9 9-4 18-17 1-8-9z" fill="#77858a" stroke="#242b30" stroke-width="2.5" stroke-linejoin="round" stroke-linecap="round"/><path d="M-7-38l9-6" fill="none" stroke="#b9c3b8" stroke-width="3" stroke-linejoin="round" stroke-linecap="round"/><path d="M-3-20v19" fill="none" stroke="#eee0bc" stroke-width="3" stroke-linejoin="round" stroke-linecap="round"/></g></g><ellipse cx="124" cy="107" rx="5.5" ry="5" fill="#dfb18c" stroke="#242b30" stroke-width="2.5"/><path d="M122 105l4 1" fill="none" stroke="#b67f61" stroke-width="1.5" stroke-linejoin="round" stroke-linecap="round"/><ellipse cx="96" cy="99" rx="9" ry="10" fill="#c5974c" stroke="#242b30" stroke-width="2.5"/><path d="M92 99l4-5 4 5-4 5z" fill="#a24b45" stroke="none" stroke-width="2.5" stroke-linejoin="round" stroke-linecap="round"/></svg>