<svg xmlns="http://www.w3.org/2000/svg" width="192" height="192" viewBox="0 0 192 192"><path d="M89 123L80 148 80 167" fill="none" stroke="#2d302d" stroke-width="12" stroke-linejoin="round" stroke-linecap="round"/><path d="M89 123L80 148 80 167" fill="none" stroke="#613d39" stroke-width="9" stroke-linejoin="round" stroke-linecap="round"/><path d="M80 151L80 167" fill="none" stroke="#2d302d" stroke-width="13" stroke-linejoin="round" stroke-linecap="round"/><path d="M80 151L80 167" fill="none" stroke="#674937" stroke-width="10" stroke-linejoin="round" stroke-linecap="round"/><path d="M76 158h8" fill="none" stroke="#d9bb78" stroke-width="2" stroke-linejoin="round" stroke-linecap="round"/><g transform="translate(80 176) rotate(0 0 0)"><path d="M-7-10h10l2 7 10 2v3H-7z" fill="#674937" stroke="#2d302d" stroke-width="2.4" stroke-linejoin="round" stroke-linecap="round"/></g><path d="M101 123L109 148 111 167" fill="none" stroke="#2d302d" stroke-width="12" stroke-linejoin="round" stroke-linecap="round"/><path d="M101 123L109 148 111 167" fill="none" stroke="#a95345" stroke-width="9" stroke-linejoin="round" stroke-linecap="round"/><path d="M109 151L111 167" fill="none" stroke="#2d302d" stroke-width="13" stroke-linejoin="round" stroke-linecap="round"/><path d="M109 151L111 167" fill="none" stroke="#674937" stroke-width="10" stroke-linejoin="round" stroke-linecap="round"/><path d="M107 158h8" fill="none" stroke="#d9bb78" stroke-width="2" stroke-linejoin="round" stroke-linecap="round"/><g transform="translate(111 176) rotate(0 0 0)"><path d="M-7-10h10l2 7 10 2v3H-7z" fill="#674937" stroke="#2d302d" stroke-width="2.4" stroke-linejoin="round" stroke-linecap="round"/></g><g transform="translate(0 0)"><g transform="translate(0 0)"><path d="M76 80l-23 15-5 50 21-4 19 12 24-68z" fill="#613d39" stroke="#2d302d" stroke-width="2.4" stroke-linejoin="round" stroke-linecap="round"/><path d="M54 137l14-4" fill="none" stroke="#e0a178" stroke-width="3" stroke-linejoin="round" stroke-linecap="round"/><path d="M75 82q19-11 36-2l9 46-24 12-26-12z" fill="#a95345" stroke="#2d302d" stroke-width="2.4" stroke-linejoin="round" stroke-linecap="round"/><path d="M73 125h42l5 22-23-5-24 6z" fill="#a95345" stroke="#2d302d" stroke-width="2.4" stroke-linejoin="round" stroke-linecap="round"/><path d="M77 139h33" fill="none" stroke="#e0a178" stroke-width="3" stroke-linejoin="round" stroke-linecap="round"/><path d="M83 79l5 22 14-19-1 27-20-6z" fill="#e0a178" stroke="#2d302d" stroke-width="2.4" stroke-linejoin="round" stroke-linecap="round"/><ellipse cx="83" cy="85" rx="4" ry="4" fill="#d9bb78" stroke="#2d302d" stroke-width="2.4"/><path d="M73 124h42" fill="none" stroke="#674937" stroke-width="5" stroke-linejoin="round" stroke-linecap="round"/><path d="M91 121h9v7h-9z" fill="#d9bb78" stroke="#2d302d" stroke-width="2.4" stroke-linejoin="round" stroke-linecap="round"/></g><path d="M86 67v15h18V65" fill="#b58060" stroke="#2d302d" stroke-width="2.4" stroke-linejoin="round" stroke-linecap="round"/><path d="M80 44q4-13 23-8 11 4 11 17l8 9-8 4-1 9q-11 6-24-2l-8-11z" fill="#dbac83" stroke="#2d302d" stroke-width="2.4" stroke-linejoin="round" stroke-linecap="round"/><ellipse cx="83" cy="57" rx="4" ry="6" fill="#dbac83" stroke="#2d302d" stroke-width="2.4"/><path d="M104 47l8 1" fill="none" stroke="#2d302d" stroke-width="2" stroke-linejoin="round" stroke-linecap="round"/><ellipse cx="109" cy="53" rx="1.8" ry="2" fill="#2d302d" stroke="none" stroke-width="2.4"/><path d="M109 68h5" fill="none" stroke="#80513b" stroke-width="1.5" stroke-linejoin="round" stroke-linecap="round"/><path d="M85 65l9 8 18-2-1 10-9 6-12-8z" fill="#49382b" stroke="#2d302d" stroke-width="2.4" stroke-linejoin="round" stroke-linecap="round"/><path d="M76 48q-5-21 12-24 20-4 27 14l-14-4-17 11-4 14-6-4z" fill="#49382b" stroke="#2d302d" stroke-width="2.4" stroke-linejoin="round" stroke-linecap="round"/><path d="M77 38l28-4" fill="none" stroke="#a95345" stroke-width="4" stroke-linejoin="round" stroke-linecap="round"/><path d="M77 87L69 107 73 118" fill="none" stroke="#2d302d" stroke-width="11" stroke-linejoin="round" stroke-linecap="round"/><path d="M77 87L69 107 73 118" fill="none" stroke="#613d39" stroke-width="8" stroke-linejoin="round" stroke-linecap="round"/><ellipse cx="73" cy="118" rx="5" ry="5" fill="#dbac83" stroke="#2d302d" stroke-width="2.4"/><path d="M111 87L129.5830479711446 120.52006906616563 148.16609594228916 128.52006906616563" fill="none" stroke="#2d302d" stroke-width="11" stroke-linejoin="round" stroke-linecap="round"/><path d="M111 87L129.5830479711446 120.52006906616563 148.16609594228916 128.52006906616563" fill="none" stroke="#a95345" stroke-width="8" stroke-linejoin="round" stroke-linecap="round"/><g transform="translate(148.16609594228916 128.52006906616563) rotate(14)"></g><g transform="translate(130 110) rotate(18)"><path d="M0-1L10-1Q23 6 34 0Q41-3 40-11l9-2Q53 6 39 16Q23 25 8 5L0 3z" fill="#d9bb78" stroke="#2d302d" stroke-width="2.4" stroke-linejoin="round" stroke-linecap="round"/><path d="M12 5Q27 18 40 9" fill="none" stroke="#806044" stroke-width="2" stroke-linejoin="round" stroke-linecap="round"/><path d="M39-12l12-2 2 8-13 3z" fill="#e9dabb" stroke="#2d302d" stroke-width="2.4" stroke-linejoin="round" stroke-linecap="round"/><path d="M41-9l8-1" fill="none" stroke="#806044" stroke-width="2" stroke-linejoin="round" stroke-linecap="round"/></g><ellipse cx="148.16609594228916" cy="128.52006906616563" rx="5" ry="5" fill="#dbac83" stroke="#2d302d" stroke-width="2.4"/></g></svg>