<svg xmlns="http://www.w3.org/2000/svg" width="192" height="192" viewBox="-64 0 320 192"><path d="M117 139L25 166l-4-9 84-37 27 11z" fill="#46565c" stroke="#272b30" stroke-width="2" stroke-linejoin="round" stroke-linecap="round"/><path d="M28 160l77-31" fill="none" stroke="#c4d0cd" stroke-width="4" stroke-linejoin="round" stroke-linecap="round"/><path d="M23 159l-9 3v9h24v-6z" fill="#77543d" stroke="#272b30" stroke-width="2" stroke-linejoin="round" stroke-linecap="round"/><path d="M91 111l28-8 27 29-17 12-35-15z" fill="#87949b" stroke="#272b30" stroke-width="2" stroke-linejoin="round" stroke-linecap="round"/><path d="M103 119l31 15" fill="none" stroke="#46565c" stroke-width="5" stroke-linejoin="round" stroke-linecap="round"/><circle cx="111" cy="113" r="7" fill="#d6ad62" stroke="#272b30" stroke-width="2"/><g transform="translate(0 0)"><path d="M73 107l16-18 83-36 12 15-82 50-25 1z" fill="#46565c" stroke="#272b30" stroke-width="2" stroke-linejoin="round" stroke-linecap="round"/><path d="M82 101l10-8 79-34 7 9-78 43-17 2z" fill="#87949b" stroke="#272b30" stroke-width="2" stroke-linejoin="round" stroke-linecap="round"/><path d="M104 101l70-36" fill="none" stroke="#c4d0cd" stroke-width="3" stroke-linejoin="round" stroke-linecap="round"/><ellipse cx="181" cy="60" rx="10" ry="8" fill="#c4d0cd" stroke="#272b30" stroke-width="2"/><ellipse cx="182" cy="60" rx="5" ry="4" fill="#46565c" stroke="#272b30" stroke-width="2"/><path d="M71 103h11l7 12-10 6-12-6z" fill="#d6ad62" stroke="#272b30" stroke-width="2" stroke-linejoin="round" stroke-linecap="round"/></g><ellipse cx="117" cy="146" rx="30" ry="30" fill="#343b3d" stroke="#272b30" stroke-width="2"/><ellipse cx="117" cy="146" rx="25" ry="25" fill="#77543d" stroke="#272b30" stroke-width="2"/><g transform="rotate(0 117 146)"><path d="M92 146h50M117 121v50M99 128l36 36M99 164l36-36" fill="none" stroke="#d6ad62" stroke-width="3" stroke-linejoin="round" stroke-linecap="round"/></g><ellipse cx="117" cy="146" rx="9" ry="9" fill="#87949b" stroke="#272b30" stroke-width="2"/><circle cx="117" cy="146" r="4" fill="#d6ad62" stroke="#272b30" stroke-width="2"/><path d="M101 79l16-4 13 56-32 9-10-10z" fill="#46565c" stroke="#272b30" stroke-width="2" stroke-linejoin="round" stroke-linecap="round"/><path d="M105 85l9-3 10 44-20 6-9-6z" fill="#87949b" stroke="#272b30" stroke-width="2" stroke-linejoin="round" stroke-linecap="round"/><path d="M99 117l25-6" fill="none" stroke="#c4d0cd" stroke-width="2" stroke-linejoin="round" stroke-linecap="round"/><circle cx="111" cy="105" r="3" fill="#d6ad62" stroke="#272b30" stroke-width="2"/><g transform="translate(-99 0) scale(.92)"><path d="M87 124L82 147" fill="none" stroke="#272b30" stroke-width="15" stroke-linejoin="round" stroke-linecap="round"/><path d="M87 124L82 147" fill="none" stroke="#285255" stroke-width="12" stroke-linejoin="round" stroke-linecap="round"/><path d="M82 147L80 169" fill="none" stroke="#272b30" stroke-width="12" stroke-linejoin="round" stroke-linecap="round"/><path d="M82 147L80 169" fill="none" stroke="#574b3e" stroke-width="9" stroke-linejoin="round" stroke-linecap="round"/><circle cx="82" cy="147" r="5" fill="#285255" stroke="#272b30" stroke-width="2"/><g transform="translate(80 176) rotate(0 0 0)"><path d="M-7-10h10l3 7 9 2v3H-7z" fill="#574b3e" stroke="#272b30" stroke-width="2" stroke-linejoin="round" stroke-linecap="round"/></g><path d="M104 124L109 147" fill="none" stroke="#272b30" stroke-width="15" stroke-linejoin="round" stroke-linecap="round"/><path d="M104 124L109 147" fill="none" stroke="#3d7777" stroke-width="12" stroke-linejoin="round" stroke-linecap="round"/><path d="M109 147L112 169" fill="none" stroke="#272b30" stroke-width="12" stroke-linejoin="round" stroke-linecap="round"/><path d="M109 147L112 169" fill="none" stroke="#574b3e" stroke-width="9" stroke-linejoin="round" stroke-linecap="round"/><circle cx="109" cy="147" r="5" fill="#3d7777" stroke="#272b30" stroke-width="2"/><g transform="translate(112 176) rotate(0 0 0)"><path d="M-7-10h10l3 7 9 2v3H-7z" fill="#574b3e" stroke="#272b30" stroke-width="2" stroke-linejoin="round" stroke-linecap="round"/></g><g transform="translate(0 0)"><path d="M76 82q19-12 39 0l8 54q-22 11-54 0z" fill="#3d7777" stroke="#272b30" stroke-width="2" stroke-linejoin="round" stroke-linecap="round"/><path d="M70 131q26 10 52 0l2 16q-27 10-55-1z" fill="#285255" stroke="#272b30" stroke-width="2" stroke-linejoin="round" stroke-linecap="round"/><path d="M81 82l14 10 14-9 6 8-19 14-21-15z" fill="#285255" stroke="#272b30" stroke-width="2" stroke-linejoin="round" stroke-linecap="round"/><path d="M97 102v28" fill="none" stroke="#a2c5ad" stroke-width="2" stroke-linejoin="round" stroke-linecap="round"/><circle cx="101" cy="106" r="2" fill="#d6ad62" stroke="#272b30" stroke-width="2"/><circle cx="101" cy="117" r="2" fill="#d6ad62" stroke="#272b30" stroke-width="2"/><circle cx="101" cy="128" r="2" fill="#d6ad62" stroke="#272b30" stroke-width="2"/><path d="M73 127h48" fill="none" stroke="#574b3e" stroke-width="5" stroke-linejoin="round" stroke-linecap="round"/><circle cx="98" cy="127" r="4" fill="#d6ad62" stroke="#272b30" stroke-width="2"/></g><g transform="translate(0 0)"><path d="M89 72h18v16H89z" fill="#b77c63" stroke="#272b30" stroke-width="2" stroke-linejoin="round" stroke-linecap="round"/><path d="M82 47q10-8 22-4 9 3 10 13l5 4-6 4-2 8q-12 9-25 1-8-7-4-26z" fill="#deb18d" stroke="#272b30" stroke-width="2" stroke-linejoin="round" stroke-linecap="round"/><ellipse cx="83" cy="59" rx="4" ry="6" fill="#deb18d" stroke="#272b30" stroke-width="2"/><path d="M83 57q4 1 3 5" fill="none" stroke="#b77c63" stroke-width="1.5" stroke-linejoin="round" stroke-linecap="round"/><path d="M101 51q5-2 9 0" fill="none" stroke="#574b3e" stroke-width="1.6" stroke-linejoin="round" stroke-linecap="round"/><circle cx="107" cy="55" r="1.6" fill="#272b30" stroke="none" stroke-width="2"/><path d="M111 68q-3 2-7 1" fill="none" stroke="#b77c63" stroke-width="1.8" stroke-linejoin="round" stroke-linecap="round"/><path d="M74 41q5-21 24-22 20 1 24 23z" fill="#3d7777" stroke="#272b30" stroke-width="2" stroke-linejoin="round" stroke-linecap="round"/><path d="M69 42h61l-8 7H74z" fill="#285255" stroke="#272b30" stroke-width="2" stroke-linejoin="round" stroke-linecap="round"/></g><path d="M78 88L76 108 104 119" fill="none" stroke="#272b30" stroke-width="11" stroke-linejoin="round" stroke-linecap="round"/><path d="M78 88L76 108 104 119" fill="none" stroke="#285255" stroke-width="8" stroke-linejoin="round" stroke-linecap="round"/><path d="M111 88L126 103 140 115" fill="none" stroke="#272b30" stroke-width="11" stroke-linejoin="round" stroke-linecap="round"/><path d="M111 88L126 103 140 115" fill="none" stroke="#3d7777" stroke-width="8" stroke-linejoin="round" stroke-linecap="round"/><circle cx="104" cy="119" r="5" fill="#deb18d" stroke="#272b30" stroke-width="2"/><circle cx="140" cy="115" r="5" fill="#deb18d" stroke="#272b30" stroke-width="2"/></g><g transform="translate(-40 0) scale(.92)"><path d="M87 124L82 147" fill="none" stroke="#272b30" stroke-width="15" stroke-linejoin="round" stroke-linecap="round"/><path d="M87 124L82 147" fill="none" stroke="#285255" stroke-width="12" stroke-linejoin="round" stroke-linecap="round"/><path d="M82 147L80 169" fill="none" stroke="#272b30" stroke-width="12" stroke-linejoin="round" stroke-linecap="round"/><path d="M82 147L80 169" fill="none" stroke="#574b3e" stroke-width="9" stroke-linejoin="round" stroke-linecap="round"/><circle cx="82" cy="147" r="5" fill="#285255" stroke="#272b30" stroke-width="2"/><g transform="translate(80 176) rotate(0 0 0)"><path d="M-7-10h10l3 7 9 2v3H-7z" fill="#574b3e" stroke="#272b30" stroke-width="2" stroke-linejoin="round" stroke-linecap="round"/></g><path d="M104 124L109 147" fill="none" stroke="#272b30" stroke-width="15" stroke-linejoin="round" stroke-linecap="round"/><path d="M104 124L109 147" fill="none" stroke="#3d7777" stroke-width="12" stroke-linejoin="round" stroke-linecap="round"/><path d="M109 147L112 169" fill="none" stroke="#272b30" stroke-width="12" stroke-linejoin="round" stroke-linecap="round"/><path d="M109 147L112 169" fill="none" stroke="#574b3e" stroke-width="9" stroke-linejoin="round" stroke-linecap="round"/><circle cx="109" cy="147" r="5" fill="#3d7777" stroke="#272b30" stroke-width="2"/><g transform="translate(112 176) rotate(0 0 0)"><path d="M-7-10h10l3 7 9 2v3H-7z" fill="#574b3e" stroke="#272b30" stroke-width="2" stroke-linejoin="round" stroke-linecap="round"/></g><g transform="translate(0 0)"><path d="M76 82q19-12 39 0l8 54q-22 11-54 0z" fill="#3d7777" stroke="#272b30" stroke-width="2" stroke-linejoin="round" stroke-linecap="round"/><path d="M70 131q26 10 52 0l2 16q-27 10-55-1z" fill="#285255" stroke="#272b30" stroke-width="2" stroke-linejoin="round" stroke-linecap="round"/><path d="M81 82l14 10 14-9 6 8-19 14-21-15z" fill="#285255" stroke="#272b30" stroke-width="2" stroke-linejoin="round" stroke-linecap="round"/><path d="M97 102v28" fill="none" stroke="#a2c5ad" stroke-width="2" stroke-linejoin="round" stroke-linecap="round"/><circle cx="101" cy="106" r="2" fill="#d6ad62" stroke="#272b30" stroke-width="2"/><circle cx="101" cy="117" r="2" fill="#d6ad62" stroke="#272b30" stroke-width="2"/><circle cx="101" cy="128" r="2" fill="#d6ad62" stroke="#272b30" stroke-width="2"/><path d="M73 127h48" fill="none" stroke="#574b3e" stroke-width="5" stroke-linejoin="round" stroke-linecap="round"/><circle cx="98" cy="127" r="4" fill="#d6ad62" stroke="#272b30" stroke-width="2"/></g><g transform="translate(0 0)"><path d="M89 72h18v16H89z" fill="#b77c63" stroke="#272b30" stroke-width="2" stroke-linejoin="round" stroke-linecap="round"/><path d="M82 47q10-8 22-4 9 3 10 13l5 4-6 4-2 8q-12 9-25 1-8-7-4-26z" fill="#deb18d" stroke="#272b30" stroke-width="2" stroke-linejoin="round" stroke-linecap="round"/><ellipse cx="83" cy="59" rx="4" ry="6" fill="#deb18d" stroke="#272b30" stroke-width="2"/><path d="M83 57q4 1 3 5" fill="none" stroke="#b77c63" stroke-width="1.5" stroke-linejoin="round" stroke-linecap="round"/><path d="M101 51q5-2 9 0" fill="none" stroke="#574b3e" stroke-width="1.6" stroke-linejoin="round" stroke-linecap="round"/><circle cx="107" cy="55" r="1.6" fill="#272b30" stroke="none" stroke-width="2"/><path d="M111 68q-3 2-7 1" fill="none" stroke="#b77c63" stroke-width="1.8" stroke-linejoin="round" stroke-linecap="round"/><path d="M74 41q5-21 24-22 20 1 24 23z" fill="#3d7777" stroke="#272b30" stroke-width="2" stroke-linejoin="round" stroke-linecap="round"/><path d="M69 42h61l-8 7H74z" fill="#285255" stroke="#272b30" stroke-width="2" stroke-linejoin="round" stroke-linecap="round"/></g><path d="M78 88L76 108 104 119" fill="none" stroke="#272b30" stroke-width="11" stroke-linejoin="round" stroke-linecap="round"/><path d="M78 88L76 108 104 119" fill="none" stroke="#285255" stroke-width="8" stroke-linejoin="round" stroke-linecap="round"/><path d="M111 88L126 103 140 115" fill="none" stroke="#272b30" stroke-width="11" stroke-linejoin="round" stroke-linecap="round"/><path d="M111 88L126 103 140 115" fill="none" stroke="#3d7777" stroke-width="8" stroke-linejoin="round" stroke-linecap="round"/><circle cx="104" cy="119" r="5" fill="#deb18d" stroke="#272b30" stroke-width="2"/><circle cx="140" cy="115" r="5" fill="#deb18d" stroke="#272b30" stroke-width="2"/></g></svg>