<svg xmlns="http://www.w3.org/2000/svg" width="192" height="192" viewBox="0 0 192 192"><path d="M89 123L80 148 80 167" fill="none" stroke="#2d302d" stroke-width="12" stroke-linejoin="round" stroke-linecap="round"/><path d="M89 123L80 148 80 167" fill="none" stroke="#304c59" stroke-width="9" stroke-linejoin="round" stroke-linecap="round"/><path d="M80 151L80 167" fill="none" stroke="#2d302d" stroke-width="13" stroke-linejoin="round" stroke-linecap="round"/><path d="M80 151L80 167" fill="none" stroke="#674937" stroke-width="10" stroke-linejoin="round" stroke-linecap="round"/><path d="M76 158h8" fill="none" stroke="#d9bb78" stroke-width="2" stroke-linejoin="round" stroke-linecap="round"/><g transform="translate(80 176) rotate(0 0 0)"><path d="M-7-10h10l2 7 10 2v3H-7z" fill="#674937" stroke="#2d302d" stroke-width="2.4" stroke-linejoin="round" stroke-linecap="round"/></g><path d="M101 123L109 148 111 167" fill="none" stroke="#2d302d" stroke-width="12" stroke-linejoin="round" stroke-linecap="round"/><path d="M101 123L109 148 111 167" fill="none" stroke="#497a8a" stroke-width="9" stroke-linejoin="round" stroke-linecap="round"/><path d="M109 151L111 167" fill="none" stroke="#2d302d" stroke-width="13" stroke-linejoin="round" stroke-linecap="round"/><path d="M109 151L111 167" fill="none" stroke="#674937" stroke-width="10" stroke-linejoin="round" stroke-linecap="round"/><path d="M107 158h8" fill="none" stroke="#d9bb78" stroke-width="2" stroke-linejoin="round" stroke-linecap="round"/><g transform="translate(111 176) rotate(0 0 0)"><path d="M-7-10h10l2 7 10 2v3H-7z" fill="#674937" stroke="#2d302d" stroke-width="2.4" stroke-linejoin="round" stroke-linecap="round"/></g><g transform="translate(0 0)"><path d="M75 82q19-11 36-2l9 46-24 12-26-12z" fill="#497a8a" stroke="#2d302d" stroke-width="2.4" stroke-linejoin="round" stroke-linecap="round"/><path d="M74 84l15-8 22 6 8 39-45 1z" fill="#6e8588" stroke="#2d302d" stroke-width="2.4" stroke-linejoin="round" stroke-linecap="round"/><path d="M80 88q3 4 6 0" fill="none" stroke="#b1bdb9" stroke-width="1.6" stroke-linejoin="round" stroke-linecap="round"/><path d="M88 88q3 4 6 0" fill="none" stroke="#b1bdb9" stroke-width="1.6" stroke-linejoin="round" stroke-linecap="round"/><path d="M96 88q3 4 6 0" fill="none" stroke="#b1bdb9" stroke-width="1.6" stroke-linejoin="round" stroke-linecap="round"/><path d="M104 88q3 4 6 0" fill="none" stroke="#b1bdb9" stroke-width="1.6" stroke-linejoin="round" stroke-linecap="round"/><path d="M112 88q3 4 6 0" fill="none" stroke="#b1bdb9" stroke-width="1.6" stroke-linejoin="round" stroke-linecap="round"/><path d="M80 96q3 4 6 0" fill="none" stroke="#b1bdb9" stroke-width="1.6" stroke-linejoin="round" stroke-linecap="round"/><path d="M88 96q3 4 6 0" fill="none" stroke="#b1bdb9" stroke-width="1.6" stroke-linejoin="round" stroke-linecap="round"/><path d="M96 96q3 4 6 0" fill="none" stroke="#b1bdb9" stroke-width="1.6" stroke-linejoin="round" stroke-linecap="round"/><path d="M104 96q3 4 6 0" fill="none" stroke="#b1bdb9" stroke-width="1.6" stroke-linejoin="round" stroke-linecap="round"/><path d="M112 96q3 4 6 0" fill="none" stroke="#b1bdb9" stroke-width="1.6" stroke-linejoin="round" stroke-linecap="round"/><path d="M80 104q3 4 6 0" fill="none" stroke="#b1bdb9" stroke-width="1.6" stroke-linejoin="round" stroke-linecap="round"/><path d="M88 104q3 4 6 0" fill="none" stroke="#b1bdb9" stroke-width="1.6" stroke-linejoin="round" stroke-linecap="round"/><path d="M96 104q3 4 6 0" fill="none" stroke="#b1bdb9" stroke-width="1.6" stroke-linejoin="round" stroke-linecap="round"/><path d="M104 104q3 4 6 0" fill="none" stroke="#b1bdb9" stroke-width="1.6" stroke-linejoin="round" stroke-linecap="round"/><path d="M112 104q3 4 6 0" fill="none" stroke="#b1bdb9" stroke-width="1.6" stroke-linejoin="round" stroke-linecap="round"/><path d="M80 112q3 4 6 0" fill="none" stroke="#b1bdb9" stroke-width="1.6" stroke-linejoin="round" stroke-linecap="round"/><path d="M88 112q3 4 6 0" fill="none" stroke="#b1bdb9" stroke-width="1.6" stroke-linejoin="round" stroke-linecap="round"/><path d="M96 112q3 4 6 0" fill="none" stroke="#b1bdb9" stroke-width="1.6" stroke-linejoin="round" stroke-linecap="round"/><path d="M104 112q3 4 6 0" fill="none" stroke="#b1bdb9" stroke-width="1.6" stroke-linejoin="round" stroke-linecap="round"/><path d="M112 112q3 4 6 0" fill="none" stroke="#b1bdb9" stroke-width="1.6" stroke-linejoin="round" stroke-linecap="round"/><path d="M72 82l13-7 7 13-16 7zM108 79l13 8 4 12-14-6z" fill="#b1bdb9" stroke="#2d302d" stroke-width="2.4" stroke-linejoin="round" stroke-linecap="round"/><path d="M74 122h41l7 23-24-4-22 6z" fill="#497a8a" stroke="#2d302d" stroke-width="2.4" stroke-linejoin="round" stroke-linecap="round"/><path d="M73 124h42" fill="none" stroke="#674937" stroke-width="5" stroke-linejoin="round" stroke-linecap="round"/><path d="M91 121h9v7h-9z" fill="#d9bb78" stroke="#2d302d" stroke-width="2.4" stroke-linejoin="round" stroke-linecap="round"/><path d="M86 67v15h18V65" fill="#b58060" stroke="#2d302d" stroke-width="2.4" stroke-linejoin="round" stroke-linecap="round"/><path d="M80 44q4-13 23-8 11 4 11 17l8 9-8 4-1 9q-11 6-24-2l-8-11z" fill="#dbac83" stroke="#2d302d" stroke-width="2.4" stroke-linejoin="round" stroke-linecap="round"/><ellipse cx="83" cy="57" rx="4" ry="6" fill="#dbac83" stroke="#2d302d" stroke-width="2.4"/><path d="M104 47l8 1" fill="none" stroke="#2d302d" stroke-width="2" stroke-linejoin="round" stroke-linecap="round"/><ellipse cx="109" cy="53" rx="1.8" ry="2" fill="#2d302d" stroke="none" stroke-width="2.4"/><path d="M109 68h5" fill="none" stroke="#80513b" stroke-width="1.5" stroke-linejoin="round" stroke-linecap="round"/><path d="M77 41Q79 27 94 23q20 1 23 16l-14-3-18 5-7 10z" fill="#b1bdb9" stroke="#2d302d" stroke-width="2.4" stroke-linejoin="round" stroke-linecap="round"/><path d="M81 36q15-8 31 0" fill="none" stroke="#6e8588" stroke-width="3" stroke-linejoin="round" stroke-linecap="round"/><path d="M75 43l8-2-2 28-7 2z" fill="#6e8588" stroke="#2d302d" stroke-width="2.4" stroke-linejoin="round" stroke-linecap="round"/><path d="M96 20v14" fill="none" stroke="#d9bb78" stroke-width="2" stroke-linejoin="round" stroke-linecap="round"/><path d="M77 87L91 107 132.1372709200438 146.62827284806144" fill="none" stroke="#2d302d" stroke-width="11" stroke-linejoin="round" stroke-linecap="round"/><path d="M77 87L91 107 132.1372709200438 146.62827284806144" fill="none" stroke="#304c59" stroke-width="8" stroke-linejoin="round" stroke-linecap="round"/><ellipse cx="132.1372709200438" cy="146.62827284806144" rx="5" ry="5" fill="#dbac83" stroke="#2d302d" stroke-width="2.4"/><path d="M111 87L129.5 103 148 111" fill="none" stroke="#2d302d" stroke-width="11" stroke-linejoin="round" stroke-linecap="round"/><path d="M111 87L129.5 103 148 111" fill="none" stroke="#497a8a" stroke-width="8" stroke-linejoin="round" stroke-linecap="round"/><g transform="translate(148 111) rotate(24)"><path d="M0 62V-80" fill="none" stroke="#bb9660" stroke-width="4" stroke-linejoin="round" stroke-linecap="round"/><path d="M0-99l-5 20 5 6 5-6z" fill="#b1bdb9" stroke="#2d302d" stroke-width="2.4" stroke-linejoin="round" stroke-linecap="round"/><path d="M0-74v13" fill="none" stroke="#674937" stroke-width="6" stroke-linejoin="round" stroke-linecap="round"/></g><ellipse cx="148" cy="111" rx="5" ry="5" fill="#dbac83" stroke="#2d302d" stroke-width="2.4"/><ellipse cx="132.1372709200438" cy="146.62827284806144" rx="4.5" ry="4.5" fill="#dbac83" stroke="#2d302d" stroke-width="2.4"/></g></svg>