<svg xmlns="http://www.w3.org/2000/svg" width="192" height="192" viewBox="0 0 192 192"><path d="M96 48V14" fill="none" stroke="#403b42" stroke-width="2.5" stroke-linejoin="round" stroke-linecap="round"/><path d="M97 16q10-3 21 2l-4 7 4 7q-11-5-21-2z" fill="#3e77a3" stroke="#403b42" stroke-width="2" stroke-linejoin="round" stroke-linecap="round"/><path d="M101 19v8" fill="none" stroke="#dcc39a" stroke-width="2" stroke-linejoin="round" stroke-linecap="round"/><path d="M64 65V47h64v18z" fill="#775349" stroke="#403b42" stroke-width="2" stroke-linejoin="round" stroke-linecap="round"/><path d="M59 48l15-18h44l15 18z" fill="#52616b" stroke="#403b42" stroke-width="2" stroke-linejoin="round" stroke-linecap="round"/><path d="M75 34h42M67 43h58" fill="none" stroke="#839298" stroke-width="2" stroke-linejoin="round" stroke-linecap="round"/><path d="M65 58h62v73H65z" fill="#a9765b" stroke="#403b42" stroke-width="2" stroke-linejoin="round" stroke-linecap="round"/><path d="M68 63h56" fill="none" stroke="#c49471" stroke-width="0.9" stroke-linejoin="round" stroke-linecap="round"/><path d="M86 63v9" fill="none" stroke="#c49471" stroke-width="0.9" stroke-linejoin="round" stroke-linecap="round"/><path d="M104 63v9" fill="none" stroke="#c49471" stroke-width="0.9" stroke-linejoin="round" stroke-linecap="round"/><path d="M122 63v9" fill="none" stroke="#c49471" stroke-width="0.9" stroke-linejoin="round" stroke-linecap="round"/><path d="M68 72h56" fill="none" stroke="#c49471" stroke-width="0.9" stroke-linejoin="round" stroke-linecap="round"/><path d="M77 72v9" fill="none" stroke="#c49471" stroke-width="0.9" stroke-linejoin="round" stroke-linecap="round"/><path d="M95 72v9" fill="none" stroke="#c49471" stroke-width="0.9" stroke-linejoin="round" stroke-linecap="round"/><path d="M113 72v9" fill="none" stroke="#c49471" stroke-width="0.9" stroke-linejoin="round" stroke-linecap="round"/><path d="M68 81h56" fill="none" stroke="#c49471" stroke-width="0.9" stroke-linejoin="round" stroke-linecap="round"/><path d="M86 81v9" fill="none" stroke="#c49471" stroke-width="0.9" stroke-linejoin="round" stroke-linecap="round"/><path d="M104 81v9" fill="none" stroke="#c49471" stroke-width="0.9" stroke-linejoin="round" stroke-linecap="round"/><path d="M122 81v9" fill="none" stroke="#c49471" stroke-width="0.9" stroke-linejoin="round" stroke-linecap="round"/><path d="M68 90h56" fill="none" stroke="#c49471" stroke-width="0.9" stroke-linejoin="round" stroke-linecap="round"/><path d="M77 90v9" fill="none" stroke="#c49471" stroke-width="0.9" stroke-linejoin="round" stroke-linecap="round"/><path d="M95 90v9" fill="none" stroke="#c49471" stroke-width="0.9" stroke-linejoin="round" stroke-linecap="round"/><path d="M113 90v9" fill="none" stroke="#c49471" stroke-width="0.9" stroke-linejoin="round" stroke-linecap="round"/><path d="M68 99h56" fill="none" stroke="#c49471" stroke-width="0.9" stroke-linejoin="round" stroke-linecap="round"/><path d="M86 99v9" fill="none" stroke="#c49471" stroke-width="0.9" stroke-linejoin="round" stroke-linecap="round"/><path d="M104 99v9" fill="none" stroke="#c49471" stroke-width="0.9" stroke-linejoin="round" stroke-linecap="round"/><path d="M122 99v9" fill="none" stroke="#c49471" stroke-width="0.9" stroke-linejoin="round" stroke-linecap="round"/><path d="M68 108h56" fill="none" stroke="#c49471" stroke-width="0.9" stroke-linejoin="round" stroke-linecap="round"/><path d="M77 108v9" fill="none" stroke="#c49471" stroke-width="0.9" stroke-linejoin="round" stroke-linecap="round"/><path d="M95 108v9" fill="none" stroke="#c49471" stroke-width="0.9" stroke-linejoin="round" stroke-linecap="round"/><path d="M113 108v9" fill="none" stroke="#c49471" stroke-width="0.9" stroke-linejoin="round" stroke-linecap="round"/><path d="M68 117h56" fill="none" stroke="#c49471" stroke-width="0.9" stroke-linejoin="round" stroke-linecap="round"/><path d="M86 117v2" fill="none" stroke="#c49471" stroke-width="0.9" stroke-linejoin="round" stroke-linecap="round"/><path d="M104 117v2" fill="none" stroke="#c49471" stroke-width="0.9" stroke-linejoin="round" stroke-linecap="round"/><path d="M122 117v2" fill="none" stroke="#c49471" stroke-width="0.9" stroke-linejoin="round" stroke-linecap="round"/><path d="M61 55h70v9H61z" fill="#dcc39a" stroke="#403b42" stroke-width="2" stroke-linejoin="round" stroke-linecap="round"/><path d="M65 58h62" fill="none" stroke="#f0dcc0" stroke-width="1.5" stroke-linejoin="round" stroke-linecap="round"/><path d="M75 78v-7q5-7 10 0v7z" fill="#373d42" stroke="#403b42" stroke-width="2" stroke-linejoin="round" stroke-linecap="round"/><path d="M80 68v10" fill="none" stroke="#dcc39a" stroke-width="1.5" stroke-linejoin="round" stroke-linecap="round"/><path d="M105 78v-7q5-7 10 0v7z" fill="#373d42" stroke="#403b42" stroke-width="2" stroke-linejoin="round" stroke-linecap="round"/><path d="M110 68v10" fill="none" stroke="#dcc39a" stroke-width="1.5" stroke-linejoin="round" stroke-linecap="round"/><path d="M86 84h20v22l-10 7-10-7z" fill="#3e77a3" stroke="#403b42" stroke-width="2" stroke-linejoin="round" stroke-linecap="round"/><path d="M89 85h5v17h-5z" fill="#2c4f70" stroke="none" stroke-width="2" stroke-linejoin="round" stroke-linecap="round"/><path d="M96 88v14M91 94h10" fill="none" stroke="#dcc39a" stroke-width="2.5" stroke-linejoin="round" stroke-linecap="round"/><path d="M24 112V97h144v15z" fill="#dcc39a" stroke="#403b42" stroke-width="2" stroke-linejoin="round" stroke-linecap="round"/><path d="M28 108h136v57H28z" fill="#a9765b" stroke="#403b42" stroke-width="2" stroke-linejoin="round" stroke-linecap="round"/><path d="M30 114h132" fill="none" stroke="#c49471" stroke-width="0.9" stroke-linejoin="round" stroke-linecap="round"/><path d="M48 114v9" fill="none" stroke="#c49471" stroke-width="0.9" stroke-linejoin="round" stroke-linecap="round"/><path d="M66 114v9" fill="none" stroke="#c49471" stroke-width="0.9" stroke-linejoin="round" stroke-linecap="round"/><path d="M84 114v9" fill="none" stroke="#c49471" stroke-width="0.9" stroke-linejoin="round" stroke-linecap="round"/><path d="M102 114v9" fill="none" stroke="#c49471" stroke-width="0.9" stroke-linejoin="round" stroke-linecap="round"/><path d="M120 114v9" fill="none" stroke="#c49471" stroke-width="0.9" stroke-linejoin="round" stroke-linecap="round"/><path d="M138 114v9" fill="none" stroke="#c49471" stroke-width="0.9" stroke-linejoin="round" stroke-linecap="round"/><path d="M156 114v9" fill="none" stroke="#c49471" stroke-width="0.9" stroke-linejoin="round" stroke-linecap="round"/><path d="M30 123h132" fill="none" stroke="#c49471" stroke-width="0.9" stroke-linejoin="round" stroke-linecap="round"/><path d="M39 123v9" fill="none" stroke="#c49471" stroke-width="0.9" stroke-linejoin="round" stroke-linecap="round"/><path d="M57 123v9" fill="none" stroke="#c49471" stroke-width="0.9" stroke-linejoin="round" stroke-linecap="round"/><path d="M75 123v9" fill="none" stroke="#c49471" stroke-width="0.9" stroke-linejoin="round" stroke-linecap="round"/><path d="M93 123v9" fill="none" stroke="#c49471" stroke-width="0.9" stroke-linejoin="round" stroke-linecap="round"/><path d="M111 123v9" fill="none" stroke="#c49471" stroke-width="0.9" stroke-linejoin="round" stroke-linecap="round"/><path d="M129 123v9" fill="none" stroke="#c49471" stroke-width="0.9" stroke-linejoin="round" stroke-linecap="round"/><path d="M147 123v9" fill="none" stroke="#c49471" stroke-width="0.9" stroke-linejoin="round" stroke-linecap="round"/><path d="M30 132h132" fill="none" stroke="#c49471" stroke-width="0.9" stroke-linejoin="round" stroke-linecap="round"/><path d="M48 132v9" fill="none" stroke="#c49471" stroke-width="0.9" stroke-linejoin="round" stroke-linecap="round"/><path d="M66 132v9" fill="none" stroke="#c49471" stroke-width="0.9" stroke-linejoin="round" stroke-linecap="round"/><path d="M84 132v9" fill="none" stroke="#c49471" stroke-width="0.9" stroke-linejoin="round" stroke-linecap="round"/><path d="M102 132v9" fill="none" stroke="#c49471" stroke-width="0.9" stroke-linejoin="round" stroke-linecap="round"/><path d="M120 132v9" fill="none" stroke="#c49471" stroke-width="0.9" stroke-linejoin="round" stroke-linecap="round"/><path d="M138 132v9" fill="none" stroke="#c49471" stroke-width="0.9" stroke-linejoin="round" stroke-linecap="round"/><path d="M156 132v9" fill="none" stroke="#c49471" stroke-width="0.9" stroke-linejoin="round" stroke-linecap="round"/><path d="M30 141h132" fill="none" stroke="#c49471" stroke-width="0.9" stroke-linejoin="round" stroke-linecap="round"/><path d="M39 141v9" fill="none" stroke="#c49471" stroke-width="0.9" stroke-linejoin="round" stroke-linecap="round"/><path d="M57 141v9" fill="none" stroke="#c49471" stroke-width="0.9" stroke-linejoin="round" stroke-linecap="round"/><path d="M75 141v9" fill="none" stroke="#c49471" stroke-width="0.9" stroke-linejoin="round" stroke-linecap="round"/><path d="M93 141v9" fill="none" stroke="#c49471" stroke-width="0.9" stroke-linejoin="round" stroke-linecap="round"/><path d="M111 141v9" fill="none" stroke="#c49471" stroke-width="0.9" stroke-linejoin="round" stroke-linecap="round"/><path d="M129 141v9" fill="none" stroke="#c49471" stroke-width="0.9" stroke-linejoin="round" stroke-linecap="round"/><path d="M147 141v9" fill="none" stroke="#c49471" stroke-width="0.9" stroke-linejoin="round" stroke-linecap="round"/><path d="M30 150h132" fill="none" stroke="#c49471" stroke-width="0.9" stroke-linejoin="round" stroke-linecap="round"/><path d="M48 150v7" fill="none" stroke="#c49471" stroke-width="0.9" stroke-linejoin="round" stroke-linecap="round"/><path d="M66 150v7" fill="none" stroke="#c49471" stroke-width="0.9" stroke-linejoin="round" stroke-linecap="round"/><path d="M84 150v7" fill="none" stroke="#c49471" stroke-width="0.9" stroke-linejoin="round" stroke-linecap="round"/><path d="M102 150v7" fill="none" stroke="#c49471" stroke-width="0.9" stroke-linejoin="round" stroke-linecap="round"/><path d="M120 150v7" fill="none" stroke="#c49471" stroke-width="0.9" stroke-linejoin="round" stroke-linecap="round"/><path d="M138 150v7" fill="none" stroke="#c49471" stroke-width="0.9" stroke-linejoin="round" stroke-linecap="round"/><path d="M156 150v7" fill="none" stroke="#c49471" stroke-width="0.9" stroke-linejoin="round" stroke-linecap="round"/><path d="M28 154h136v18H28z" fill="#775349" stroke="#403b42" stroke-width="2" stroke-linejoin="round" stroke-linecap="round"/><path d="M30 158h132" fill="none" stroke="#ae8064" stroke-width="2" stroke-linejoin="round" stroke-linecap="round"/><path d="M73 171v-39q0-21 23-21t23 21v39z" fill="#dcc39a" stroke="#403b42" stroke-width="2" stroke-linejoin="round" stroke-linecap="round"/><path d="M81 171v-39q0-13 15-13t15 13v39z" fill="#3e3735" stroke="#403b42" stroke-width="2" stroke-linejoin="round" stroke-linecap="round"/><path d="M85 167v-35q0-9 11-9t11 9v35z" fill="#6d4b39" stroke="#403b42" stroke-width="2" stroke-linejoin="round" stroke-linecap="round"/><path d="M96 125v42M90 127v39M102 127v39" fill="none" stroke="#a27a52" stroke-width="1.5" stroke-linejoin="round" stroke-linecap="round"/><path d="M86 140h20M86 158h20" fill="none" stroke="#403b42" stroke-width="3" stroke-linejoin="round" stroke-linecap="round"/><path d="M78 169h36l5 7H73z" fill="#c7ae89" stroke="#403b42" stroke-width="2" stroke-linejoin="round" stroke-linecap="round"/><g><path d="M8 119l20-14 35 8-13 15z" fill="#dcc39a" stroke="#403b42" stroke-width="2" stroke-linejoin="round" stroke-linecap="round"/><path d="M8 119l42 9v48H8z" fill="#a9765b" stroke="#403b42" stroke-width="2" stroke-linejoin="round" stroke-linecap="round"/><path d="M50 128l13-15v55l-13 8z" fill="#775349" stroke="#403b42" stroke-width="2" stroke-linejoin="round" stroke-linecap="round"/><path d="M11 133h36" fill="none" stroke="#c49471" stroke-width="0.9" stroke-linejoin="round" stroke-linecap="round"/><path d="M29 133v9" fill="none" stroke="#c49471" stroke-width="0.9" stroke-linejoin="round" stroke-linecap="round"/><path d="M11 142h36" fill="none" stroke="#c49471" stroke-width="0.9" stroke-linejoin="round" stroke-linecap="round"/><path d="M20 142v9" fill="none" stroke="#c49471" stroke-width="0.9" stroke-linejoin="round" stroke-linecap="round"/><path d="M38 142v9" fill="none" stroke="#c49471" stroke-width="0.9" stroke-linejoin="round" stroke-linecap="round"/><path d="M11 151h36" fill="none" stroke="#c49471" stroke-width="0.9" stroke-linejoin="round" stroke-linecap="round"/><path d="M29 151v9" fill="none" stroke="#c49471" stroke-width="0.9" stroke-linejoin="round" stroke-linecap="round"/><path d="M11 160h36" fill="none" stroke="#c49471" stroke-width="0.9" stroke-linejoin="round" stroke-linecap="round"/><path d="M20 160v8" fill="none" stroke="#c49471" stroke-width="0.9" stroke-linejoin="round" stroke-linecap="round"/><path d="M38 160v8" fill="none" stroke="#c49471" stroke-width="0.9" stroke-linejoin="round" stroke-linecap="round"/><path d="M9 127l40 8" fill="none" stroke="#dcc39a" stroke-width="3" stroke-linejoin="round" stroke-linecap="round"/><path d="M51 134l10-12" fill="none" stroke="#dcc39a" stroke-width="2" stroke-linejoin="round" stroke-linecap="round"/><path d="M20 145v-10l18 3v11z" fill="#403b42" stroke="#403b42" stroke-width="2" stroke-linejoin="round" stroke-linecap="round"/><path d="M22 139l-5-1-7 3v6l7 2 8-4z" fill="#63727b" stroke="#403b42" stroke-width="2" stroke-linejoin="round" stroke-linecap="round"/><path d="M9 141l4 1v5l-4-1z" fill="#303b43" stroke="#403b42" stroke-width="2" stroke-linejoin="round" stroke-linecap="round"/><path d="M17 141l6 1" fill="none" stroke="#b8c2bf" stroke-width="1.5" stroke-linejoin="round" stroke-linecap="round"/><path d="M18 151l22 5v4l-22-5z" fill="#dcc39a" stroke="#403b42" stroke-width="2" stroke-linejoin="round" stroke-linecap="round"/><path d="M8 167l42 9H8z" fill="#775349" stroke="#403b42" stroke-width="2" stroke-linejoin="round" stroke-linecap="round"/><path d="M10 170l36 4" fill="none" stroke="#ad7d60" stroke-width="1.5" stroke-linejoin="round" stroke-linecap="round"/></g><g transform="translate(192 0) scale(-1 1)"><path d="M8 119l20-14 35 8-13 15z" fill="#dcc39a" stroke="#403b42" stroke-width="2" stroke-linejoin="round" stroke-linecap="round"/><path d="M8 119l42 9v48H8z" fill="#a9765b" stroke="#403b42" stroke-width="2" stroke-linejoin="round" stroke-linecap="round"/><path d="M50 128l13-15v55l-13 8z" fill="#775349" stroke="#403b42" stroke-width="2" stroke-linejoin="round" stroke-linecap="round"/><path d="M11 133h36" fill="none" stroke="#c49471" stroke-width="0.9" stroke-linejoin="round" stroke-linecap="round"/><path d="M29 133v9" fill="none" stroke="#c49471" stroke-width="0.9" stroke-linejoin="round" stroke-linecap="round"/><path d="M11 142h36" fill="none" stroke="#c49471" stroke-width="0.9" stroke-linejoin="round" stroke-linecap="round"/><path d="M20 142v9" fill="none" stroke="#c49471" stroke-width="0.9" stroke-linejoin="round" stroke-linecap="round"/><path d="M38 142v9" fill="none" stroke="#c49471" stroke-width="0.9" stroke-linejoin="round" stroke-linecap="round"/><path d="M11 151h36" fill="none" stroke="#c49471" stroke-width="0.9" stroke-linejoin="round" stroke-linecap="round"/><path d="M29 151v9" fill="none" stroke="#c49471" stroke-width="0.9" stroke-linejoin="round" stroke-linecap="round"/><path d="M11 160h36" fill="none" stroke="#c49471" stroke-width="0.9" stroke-linejoin="round" stroke-linecap="round"/><path d="M20 160v8" fill="none" stroke="#c49471" stroke-width="0.9" stroke-linejoin="round" stroke-linecap="round"/><path d="M38 160v8" fill="none" stroke="#c49471" stroke-width="0.9" stroke-linejoin="round" stroke-linecap="round"/><path d="M9 127l40 8" fill="none" stroke="#dcc39a" stroke-width="3" stroke-linejoin="round" stroke-linecap="round"/><path d="M51 134l10-12" fill="none" stroke="#dcc39a" stroke-width="2" stroke-linejoin="round" stroke-linecap="round"/><path d="M20 145v-10l18 3v11z" fill="#403b42" stroke="#403b42" stroke-width="2" stroke-linejoin="round" stroke-linecap="round"/><path d="M22 139l-5-1-7 3v6l7 2 8-4z" fill="#63727b" stroke="#403b42" stroke-width="2" stroke-linejoin="round" stroke-linecap="round"/><path d="M9 141l4 1v5l-4-1z" fill="#303b43" stroke="#403b42" stroke-width="2" stroke-linejoin="round" stroke-linecap="round"/><path d="M17 141l6 1" fill="none" stroke="#b8c2bf" stroke-width="1.5" stroke-linejoin="round" stroke-linecap="round"/><path d="M18 151l22 5v4l-22-5z" fill="#dcc39a" stroke="#403b42" stroke-width="2" stroke-linejoin="round" stroke-linecap="round"/><path d="M8 167l42 9H8z" fill="#775349" stroke="#403b42" stroke-width="2" stroke-linejoin="round" stroke-linecap="round"/><path d="M10 170l36 4" fill="none" stroke="#ad7d60" stroke-width="1.5" stroke-linejoin="round" stroke-linecap="round"/></g></svg>